<svg viewBox="0 0 79.568 34.994" height="34.994" width="79.568" xmlns="http://www.w3.org/2000/svg">
  <g transform="translate(-246.608 -109.333)" id="Gruppe_71">
    <path fill="#b68505" transform="translate(108.979 109.333)" d="M195.786,7.209c-2.716-.463-5.458.118-8.179-.206a9.306,9.306,0,0,1-4.868-1.742c-.52-.41-.65-.552-.032-1.134a8.278,8.278,0,0,1,6.038-2.048c4.361-.041,8.722-.16,13.075-.5.745-.058,1.33-.175,1.691-.924a1.1,1.1,0,0,1,1.561-.526,15.554,15.554,0,0,0,4.764,1.461c.667.056.84.712.885,1.29.18,2.272.1,4.437-1.617,6.281a25.888,25.888,0,0,0-2.32,3.414c-2.235,4-4.728,7.842-6.926,11.862-.574,1.05-.444,1.5.739,1.809,1.016.262,2.138.075,3.078.631a7.746,7.746,0,0,0,4.121.8c2.352.006,4.725-.208,7.029.5.446.371,1.057.33,1.54.625.757.462,1.157.995.5,1.83a8.009,8.009,0,0,1-3.356,2.074,1.926,1.926,0,0,1-.833.09c-1.774-.358-3.61-.135-5.372-.581a37.167,37.167,0,0,0-7.419.2,8.056,8.056,0,0,0-3.155,1.181c-1.326,1.455-1.657,1.628-3.16.73a7.627,7.627,0,0,0-4.146-1.174c-1.191-1.613-1.07-4.709.342-6.761,1.865-2.712,3.57-5.523,5.28-8.331a5.217,5.217,0,0,0,.254-.546,58.962,58.962,0,0,1,3.9-6.7c1.137-1.679.834-1.932-.909-2.766a11.2,11.2,0,0,0-2.507-.838" id="Pfad_181"></path>
    <path fill="#b6b6b6" transform="translate(149.367 109.262)" d="M132.86,34.744a4.481,4.481,0,0,1-3.988-5.023c.846-3.725,2.071-7.345,3.14-11.008a41.156,41.156,0,0,0,1.871-10.155,22.657,22.657,0,0,1,.843-6.268c.284-.878.429-1.919,1.54-2.141a2.8,2.8,0,0,1,2.9,1.4c2.538,3.53,3.442,7.161,1.456,11.384a33.056,33.056,0,0,0-3.27,17.048c.2,2.307-.783,3.428-2.646,4.234a3.2,3.2,0,0,1-1.852.529" id="Pfad_182"></path>
    <path fill="#b11214" transform="translate(234.778 108.521)" d="M35.648,15.511c3.288-2.78,2.312-6.754-1.151-8.1C30.373,5.8,26.171,4.854,21.869,7.043a14.6,14.6,0,0,1-5.078,1.7c-1.062.11-1.342-.255-.956-1.265a6.314,6.314,0,0,1,2.306-2.623,31.011,31.011,0,0,1,4.445-2.786,7.309,7.309,0,0,1,3.754-.9,34.188,34.188,0,0,0,4.4-.053,7.684,7.684,0,0,1,5.953,2c.308.264.645.494.969.74a4.872,4.872,0,0,1,1.645,1.535l-.01-.009c.392.354.875.627,1.039,1.182l.214.26c.641.147.863.646,1.011,1.207L42.3,9.492a.735.735,0,0,1,.045.743c-.75.025-.86-.664-1.15-1.1a20.76,20.76,0,0,0-7.029-6.652,4.154,4.154,0,0,0-2.452-.6,32.86,32.86,0,0,1-4.519.071A8.69,8.69,0,0,0,22.188,3.2c-1.337.789-2.624,1.64-3.877,2.548a3.62,3.62,0,0,0-1.449,1.992,2.539,2.539,0,0,0,1.657-.224,35.6,35.6,0,0,0,3.735-1.5,9.63,9.63,0,0,1,6.285-.864,19.507,19.507,0,0,1,6.389,1.528c3.743,1.9,4.541,5.35,2.2,8.5-.34.456-.732,1.048-1.5.7a.288.288,0,0,1,.023-.357" id="Pfad_184"></path>
    <path fill="#b01518" transform="translate(245.594 82.585)" d="M31.462,36.2q.011-.385.022-.77c.727,1.1.4,2.275.216,3.428a33.761,33.761,0,0,0-.715,3.711,1.177,1.177,0,0,1-.253.672c-2.028,2.313-4.069,4.705-7.509,4.621-1.948-.048-3.577.814-5.3,1.414a3.8,3.8,0,0,1-3.4-.107,1.856,1.856,0,0,0-2.157.149,10.6,10.6,0,0,0-3.337,4.277c-1.136,2.112-1.975,4.371-3.2,6.44A2.788,2.788,0,0,1,2.283,61.6c-.74-.183-.505-.909-.732-1.38a2.145,2.145,0,0,1-.007-1.826,1.783,1.783,0,0,1,.243-.547,5.442,5.442,0,0,0,1.278-4.6A5.21,5.21,0,0,1,3.8,50.369a.235.235,0,0,1,.339.044,1.129,1.129,0,0,1,.042,1.059A6.35,6.35,0,0,0,3.888,54a6.211,6.211,0,0,1-1.164,3.911,2.04,2.04,0,0,0-.4.75c-.163.743-.225,1.548.5,1.979.682.4,1.337.032,1.857-.5a6.571,6.571,0,0,0,1.259-1.935,56.762,56.762,0,0,1,3.9-7.466,7.193,7.193,0,0,1,2.624-2.329,2.526,2.526,0,0,1,2.47.014A3.132,3.132,0,0,0,18,48.4c1.989-1.139,4.195-1.233,6.364-1.528a8.12,8.12,0,0,0,5.972-5.452c.415-1.732.548-3.525,1.129-5.22" id="Pfad_185"></path>
    <path fill="#b01518" transform="translate(238.02 75.343)" d="M11.63,57.611h-.254a16.014,16.014,0,0,1,3.5-6.588C16.074,49.8,16.424,48,17.255,46.511a2.494,2.494,0,0,1,3.814-.983,2.09,2.09,0,0,1,1,2.284,8.385,8.385,0,0,1-1.137,2.937c-.714,1.247-.468,1.582,1.014,1.618a15.471,15.471,0,0,0,6.912-1.773c1.215-.563,2.365-1.265,3.545-1.9l.055.389c.046.455-.29.644-.6.832a29.732,29.732,0,0,1-6.7,2.954,11.03,11.03,0,0,1-4.137.11c-.958-.081-1.3-.812-1.021-1.945a27.46,27.46,0,0,1,1.116-2.577,1.714,1.714,0,0,0-.744-2.219,1.423,1.423,0,0,0-2.133.414,56.423,56.423,0,0,1-4.9,8,8.465,8.465,0,0,0-.726,1.813c-.2.491-.386,1-.986,1.157" id="Pfad_186"></path>
    <path fill="#c4685f" transform="translate(246.608 11.826)" d="M.53,129.15q0,.913.007,1.826A1.048,1.048,0,0,1,.53,129.15" id="Pfad_187"></path>
    <path fill="#f73e37" transform="translate(244.111 107.16)" d="M5.539,25.795A2.88,2.88,0,0,0,6,25.082,15.159,15.159,0,0,1,9.4,19.253c.994-1.136,1.288-2.675,2.024-3.974.752-1.326,1.74-1.887,2.821-1.388,1.233.568,1.578,1.623.976,3.072-.326.785-.768,1.529-1.021,2.334-.365,1.164-.022,1.518,1.192,1.616,4.183.337,7.62-1.53,10.978-3.652a4.853,4.853,0,0,0,.911-7.676,10.626,10.626,0,0,0-5.616-2.4c-1.192-.233-2.413-.311-3.615-.5-3-.469-5.388,1.25-7.972,2.235A22.441,22.441,0,0,1,7.5,9.6a.671.671,0,0,1-.567-.111c-.2-.242.1-.412.2-.619,1.093-2.226,3.327-3.09,5.194-4.4C14.427,3,16.785,2.9,19.214,3.011c1.175.052,2.358-.13,3.525-.133a7.162,7.162,0,0,1,4.331,1.984,22.547,22.547,0,0,1,5.876,6.761,13.981,13.981,0,0,1-1.139,6.42,7.762,7.762,0,0,1-5.451,4.531c-1.388.275-2.814.366-4.226.511-.967.1-1.664.8-2.551,1.091a4.008,4.008,0,0,1-3.388-.065c-1.366-.711-3.311.208-4.414,1.928a52.035,52.035,0,0,0-4.1,7.88,7.676,7.676,0,0,1-1.274,1.926,2.019,2.019,0,0,1-2.531.542c-.556-.232-.8-2.135-.278-2.726,1.428-1.618,1.545-3.526,1.433-5.506-.048-.847.665-1.506.51-2.361" id="Pfad_191"></path>
  </g>
</svg>
