<svg xmlns="http://www.w3.org/2000/svg" xmlns:xlink="http://www.w3.org/1999/xlink" width="189.492" height="34.994" viewBox="0 0 189.492 34.994">
  <defs>
    <clipPath id="clip-path">
      <rect id="Rechteck_29" data-name="Rechteck 29" width="189.492" height="34.994" fill="none"/>
    </clipPath>
  </defs>
  <g id="Gruppe_19" data-name="Gruppe 19" clip-path="url(#clip-path)">
    <path id="Pfad_90" data-name="Pfad 90" d="M195.786,7.209c-2.716-.463-5.458.118-8.179-.206a9.306,9.306,0,0,1-4.868-1.742c-.52-.41-.65-.552-.032-1.134a8.278,8.278,0,0,1,6.038-2.048c4.361-.041,8.722-.16,13.075-.5.745-.058,1.33-.175,1.691-.924a1.1,1.1,0,0,1,1.561-.526,15.554,15.554,0,0,0,4.764,1.461c.667.056.84.712.885,1.29.18,2.272.1,4.437-1.617,6.281a25.888,25.888,0,0,0-2.32,3.414c-2.235,4-4.728,7.842-6.926,11.862-.574,1.05-.444,1.5.739,1.809,1.016.262,2.138.075,3.078.631a7.746,7.746,0,0,0,4.121.8c2.352.006,4.725-.208,7.029.5.446.371,1.057.33,1.54.625.757.462,1.157.995.5,1.83a8.009,8.009,0,0,1-3.356,2.074,1.926,1.926,0,0,1-.833.09c-1.774-.358-3.61-.135-5.372-.581a37.167,37.167,0,0,0-7.419.2,8.056,8.056,0,0,0-3.155,1.181c-1.326,1.455-1.657,1.628-3.16.73a7.627,7.627,0,0,0-4.146-1.174c-1.191-1.613-1.07-4.709.342-6.761,1.865-2.712,3.57-5.523,5.28-8.331a5.217,5.217,0,0,0,.254-.546,58.962,58.962,0,0,1,3.9-6.7c1.137-1.679.834-1.932-.909-2.766a11.2,11.2,0,0,0-2.507-.838" transform="translate(-137.63 0)" fill="#b68505"/>
    <path id="Pfad_91" data-name="Pfad 91" d="M132.86,34.744a4.481,4.481,0,0,1-3.988-5.023c.846-3.725,2.071-7.345,3.14-11.008a41.156,41.156,0,0,0,1.871-10.155,22.657,22.657,0,0,1,.843-6.268c.284-.878.429-1.919,1.54-2.141a2.8,2.8,0,0,1,2.9,1.4c2.538,3.53,3.442,7.161,1.456,11.384a33.056,33.056,0,0,0-3.27,17.048c.2,2.307-.783,3.428-2.646,4.234a3.2,3.2,0,0,1-1.852.529" transform="translate(-97.241 -0.071)" fill="#b6b6b6"/>
    <path id="Pfad_92" data-name="Pfad 92" d="M405.372,24.943a18.977,18.977,0,0,1-1.589,5.24,23.945,23.945,0,0,0-1.722,10.484c.036.748.345,1.77-.316,2.192a5.956,5.956,0,0,1-3.169,1.409c-1.7-.006-3.162-2.048-2.7-4.02.533-2.282,1.146-4.556,1.894-6.775a41.362,41.362,0,0,0,1.839-10.514,12.759,12.759,0,0,1,.485-2.62,1.582,1.582,0,0,1,2.867-.723,9.431,9.431,0,0,1,2.412,5.327" transform="translate(-298.816 -14.303)" fill="#030303"/>
    <path id="Pfad_93" data-name="Pfad 93" d="M35.648,15.511c3.288-2.78,2.312-6.754-1.151-8.1C30.373,5.8,26.171,4.854,21.869,7.043a14.6,14.6,0,0,1-5.078,1.7c-1.062.11-1.342-.255-.956-1.265a6.314,6.314,0,0,1,2.306-2.623,31.011,31.011,0,0,1,4.445-2.786,7.309,7.309,0,0,1,3.754-.9,34.188,34.188,0,0,0,4.4-.053,7.684,7.684,0,0,1,5.953,2c.308.264.645.494.969.74a4.872,4.872,0,0,1,1.645,1.535l-.01-.009c.392.354.875.627,1.039,1.182l.214.26c.641.147.863.646,1.011,1.207L42.3,9.492a.735.735,0,0,1,.045.743c-.75.025-.86-.664-1.15-1.1a20.76,20.76,0,0,0-7.029-6.652,4.154,4.154,0,0,0-2.452-.6,32.86,32.86,0,0,1-4.519.071A8.69,8.69,0,0,0,22.188,3.2c-1.337.789-2.624,1.64-3.877,2.548a3.62,3.62,0,0,0-1.449,1.992,2.539,2.539,0,0,0,1.657-.224,35.6,35.6,0,0,0,3.735-1.5,9.63,9.63,0,0,1,6.285-.864,19.507,19.507,0,0,1,6.389,1.528c3.743,1.9,4.541,5.35,2.2,8.5-.34.456-.732,1.048-1.5.7a.288.288,0,0,1,.023-.357" transform="translate(-11.831 -0.812)" fill="#b11214"/>
    <path id="Pfad_94" data-name="Pfad 94" d="M31.462,36.2q.011-.385.022-.77c.727,1.1.4,2.275.216,3.428a33.761,33.761,0,0,0-.715,3.711,1.177,1.177,0,0,1-.253.672c-2.028,2.313-4.069,4.705-7.509,4.621-1.948-.048-3.577.814-5.3,1.414a3.8,3.8,0,0,1-3.4-.107,1.856,1.856,0,0,0-2.157.149,10.6,10.6,0,0,0-3.337,4.277c-1.136,2.112-1.975,4.371-3.2,6.44A2.788,2.788,0,0,1,2.283,61.6c-.74-.183-.505-.909-.732-1.38a2.145,2.145,0,0,1-.007-1.826,1.783,1.783,0,0,1,.243-.547,5.442,5.442,0,0,0,1.278-4.6A5.21,5.21,0,0,1,3.8,50.369a.235.235,0,0,1,.339.044,1.129,1.129,0,0,1,.042,1.059A6.35,6.35,0,0,0,3.888,54a6.211,6.211,0,0,1-1.164,3.911,2.04,2.04,0,0,0-.4.75c-.163.743-.225,1.548.5,1.979.682.4,1.337.032,1.857-.5a6.571,6.571,0,0,0,1.259-1.935,56.762,56.762,0,0,1,3.9-7.466,7.193,7.193,0,0,1,2.624-2.329,2.526,2.526,0,0,1,2.47.014A3.132,3.132,0,0,0,18,48.4c1.989-1.139,4.195-1.233,6.364-1.528a8.12,8.12,0,0,0,5.972-5.452c.415-1.732.548-3.525,1.129-5.22" transform="translate(-1.015 -26.748)" fill="#b01518"/>
    <path id="Pfad_95" data-name="Pfad 95" d="M11.63,57.611h-.254a16.014,16.014,0,0,1,3.5-6.588C16.074,49.8,16.424,48,17.255,46.511a2.494,2.494,0,0,1,3.814-.983,2.09,2.09,0,0,1,1,2.284,8.385,8.385,0,0,1-1.137,2.937c-.714,1.247-.468,1.582,1.014,1.618a15.471,15.471,0,0,0,6.912-1.773c1.215-.563,2.365-1.265,3.545-1.9l.055.389c.046.455-.29.644-.6.832a29.732,29.732,0,0,1-6.7,2.954,11.03,11.03,0,0,1-4.137.11c-.958-.081-1.3-.812-1.021-1.945a27.46,27.46,0,0,1,1.116-2.577,1.714,1.714,0,0,0-.744-2.219,1.423,1.423,0,0,0-2.133.414,56.423,56.423,0,0,1-4.9,8,8.465,8.465,0,0,0-.726,1.813c-.2.491-.386,1-.986,1.157" transform="translate(-8.589 -33.99)" fill="#b01518"/>
    <path id="Pfad_96" data-name="Pfad 96" d="M.53,129.15q0,.913.007,1.826A1.048,1.048,0,0,1,.53,129.15" transform="translate(0 -97.507)" fill="#c4685f"/>
    <path id="Pfad_97" data-name="Pfad 97" d="M573.878,26.4c-4.156-4.074-11.261-7.927-18.935-3.373-4.332,2.571-6.156,6.319-6.72,11-.132,1.1.723,1.953.768,3.041a17.241,17.241,0,0,0,.92,4.877c.12.352.172.716.547.9,2.628,1.258,5.01,3.372,8.284,2.383.449,0,.9-.029,1.346,0,4.085.311,7.351-1.694,10.587-3.758a3.108,3.108,0,0,0,.969-1.086,49.677,49.677,0,0,0,3.609-7.451,5.852,5.852,0,0,0-1.375-6.538m-7.457,10.355a13.592,13.592,0,0,1-6.1,2.614,1.129,1.129,0,0,0-.855.382c-1.06,1.595-2.654.716-4.015.9-.305.041-.411-.24-.519-.443-.532-1-1.02-2.028-1.573-3.018a4.452,4.452,0,0,1-.162-3.932c.98-2.732,2.233-5.22,4.967-6.8a13.829,13.829,0,0,0,1.642,3.652c.588.778,1.154.8,1.784.1a11.273,11.273,0,0,0,1.36-2.162A3.317,3.317,0,0,1,566,25.974c1.384.046,2.035,1.1,2.582,2.155,1.9,3.677,1.251,6.254-2.159,8.624" transform="translate(-413.892 -15.83)" fill="#323232"/>
    <path id="Pfad_98" data-name="Pfad 98" d="M460.259,26.513A16.819,16.819,0,0,0,448,20.787c-5.2-.112-10.746,3.942-12.558,8.791-.184.493-.42.969-.583,1.468-.384,1.176-1.023,2.349-.4,3.617a14.221,14.221,0,0,1,.963,4.5,11.553,11.553,0,0,0,.722,2.822,1.325,1.325,0,0,0,.56.758c2.467,1.373,4.854,3.007,7.923,2.345a.6.6,0,0,1,.122,0c3.478.553,6.585-.565,9.56-2.182a8.123,8.123,0,0,0,3.376-2.516,43.851,43.851,0,0,0,3.669-7.4,5.891,5.891,0,0,0-1.1-6.48M452.8,36.464a13.457,13.457,0,0,1-6.3,2.739,1.106,1.106,0,0,0-.858.405c-1.052,1.6-2.64.731-4,.88a.648.648,0,0,1-.555-.426c-.066-.148-.174-.277-.241-.425-.943-2.076-2.687-3.905-1.478-6.552.977-2.138,1.59-4.449,3.7-5.855a13.05,13.05,0,0,0,1.2-1.043,14.755,14.755,0,0,0,1.7,3.8c.616.8,1.121.76,1.773.084a13.06,13.06,0,0,0,1.419-2.263c.681-1.073,1.457-1.979,2.868-1.965,1.452.014,2.143,1.08,2.73,2.141,1.878,3.393,1.205,6.289-1.968,8.481" transform="translate(-327.817 -15.692)" fill="#323232"/>
    <path id="Pfad_99" data-name="Pfad 99" d="M687.931,28c-1.1-2.458-3.234-3.812-5.445-5.062-6.949-3.931-12.436-2.875-18.519,2.9-1.839,1.746-2.445,4.528-2.969,7.087a2.734,2.734,0,0,0,.216,1.916,8.558,8.558,0,0,1,.737,3.423,25.711,25.711,0,0,0,.727,3.329,1.443,1.443,0,0,0,.646.987c2.471,1.338,4.837,3.039,7.912,2.371a2.324,2.324,0,0,1,.489,0c5.182.361,8.032-1.415,11.494-3.572a3.554,3.554,0,0,0,1.186-1.208,43.569,43.569,0,0,0,3.708-7.663,5.837,5.837,0,0,0-.183-4.5m-8.7,8.474a13.183,13.183,0,0,1-5.982,2.6,1.253,1.253,0,0,0-.981.417c-1.066,1.579-2.654.707-4.019.859-.132.015-.337-.208-.433-.366a20.353,20.353,0,0,1-2.154-4.483,1.827,1.827,0,0,1-.04-.962c.88-3.348,2.09-6.5,5.354-8.375a11.749,11.749,0,0,0,1.638,3.633c.7.847,1.268.869,1.906-.047.6-.865,1.12-1.791,1.719-2.659,1.238-1.8,3.291-1.976,4.5-.174,2.66,3.957,2.453,6.749-1.51,9.563" transform="translate(-498.988 -15.55)" fill="#323232"/>
    <path id="Pfad_100" data-name="Pfad 100" d="M5.539,25.795A2.88,2.88,0,0,0,6,25.082,15.159,15.159,0,0,1,9.4,19.253c.994-1.136,1.288-2.675,2.024-3.974.752-1.326,1.74-1.887,2.821-1.388,1.233.568,1.578,1.623.976,3.072-.326.785-.768,1.529-1.021,2.334-.365,1.164-.022,1.518,1.192,1.616,4.183.337,7.62-1.53,10.978-3.652a4.853,4.853,0,0,0,.911-7.676,10.626,10.626,0,0,0-5.616-2.4c-1.192-.233-2.413-.311-3.615-.5-3-.469-5.388,1.25-7.972,2.235A22.441,22.441,0,0,1,7.5,9.6a.671.671,0,0,1-.567-.111c-.2-.242.1-.412.2-.619,1.093-2.226,3.327-3.09,5.194-4.4C14.427,3,16.785,2.9,19.214,3.011c1.175.052,2.358-.13,3.525-.133a7.162,7.162,0,0,1,4.331,1.984,22.547,22.547,0,0,1,5.876,6.761,13.981,13.981,0,0,1-1.139,6.42,7.762,7.762,0,0,1-5.451,4.531c-1.388.275-2.814.366-4.226.511-.967.1-1.664.8-2.551,1.091a4.008,4.008,0,0,1-3.388-.065c-1.366-.711-3.311.208-4.414,1.928a52.035,52.035,0,0,0-4.1,7.88,7.676,7.676,0,0,1-1.274,1.926,2.019,2.019,0,0,1-2.531.542c-.556-.232-.8-2.135-.278-2.726,1.428-1.618,1.545-3.526,1.433-5.506-.048-.847.665-1.506.51-2.361" transform="translate(-2.497 -2.173)" fill="#f73e37"/>
  </g>
</svg>
