<svg xmlns="http://www.w3.org/2000/svg" xmlns:xlink="http://www.w3.org/1999/xlink" width="224.5" height="193.248" viewBox="0 0 224.5 193.248">
  <defs>
    <clipPath id="clip-path">
      <rect id="Rechteck_422" data-name="Rechteck 422" width="224.5" height="193.248" fill="none"/>
    </clipPath>
  </defs>
  <g id="siegelBG" transform="translate(6969.224 -16742.215)">
    <circle id="Ellipse_25" data-name="Ellipse 25" cx="57.85" cy="57.85" r="57.85" transform="translate(-6914.485 16743.514)" fill="#fff"/>
    <g id="Gruppe_95" data-name="Gruppe 95" transform="translate(-6969.224 16742.215)">
      <g id="Gruppe_89" data-name="Gruppe 89">
        <g id="Gruppe_88" data-name="Gruppe 88" clip-path="url(#clip-path)">
          <path id="Pfad_2650" data-name="Pfad 2650" d="M233.773,130.723c-.738.009-.8.069-.8.819q-.007,10.292,0,20.582a7.019,7.019,0,0,0,.093.794c1.57.034,3.052.078,4.57-.02V130.814a5.98,5.98,0,0,0-.685-.09c-1.06-.008-2.12-.014-3.18,0" transform="translate(-147.089 -82.529)" fill="#a82020"/>
          <path id="Pfad_2651" data-name="Pfad 2651" d="M298.523,130.723c-.738.009-.8.069-.8.819q-.007,10.292,0,20.582a7.012,7.012,0,0,0,.093.794c1.57.034,3.052.078,4.57-.02V130.814a5.978,5.978,0,0,0-.685-.09c-1.06-.008-2.12-.014-3.18,0" transform="translate(-187.97 -82.529)" fill="#a82020"/>
          <path id="Pfad_2652" data-name="Pfad 2652" d="M266.023,130.723c-.738.009-.8.069-.8.819q-.007,10.292,0,20.582a7.019,7.019,0,0,0,.093.794c1.57.034,3.052.078,4.57-.02V130.814a5.978,5.978,0,0,0-.685-.09c-1.06-.008-2.12-.014-3.18,0" transform="translate(-167.451 -82.529)" fill="#a82020"/>
          <path id="Pfad_2653" data-name="Pfad 2653" d="M363.273,130.723c-.738.009-.8.069-.8.819q-.007,10.292,0,20.582a7.012,7.012,0,0,0,.093.794c1.57.034,3.052.078,4.57-.02V130.814a5.978,5.978,0,0,0-.685-.09c-1.06-.008-2.12-.014-3.18,0" transform="translate(-228.851 -82.529)" fill="#a82020"/>
          <path id="Pfad_2654" data-name="Pfad 2654" d="M330.773,130.723c-.738.009-.8.069-.8.819q-.007,10.292,0,20.582a7,7,0,0,0,.093.794c1.57.034,3.052.078,4.57-.02V130.814a5.978,5.978,0,0,0-.685-.09c-1.06-.008-2.12-.014-3.18,0" transform="translate(-208.332 -82.529)" fill="#a82020"/>
        </g>
      </g>
      <g id="Gruppe_91" data-name="Gruppe 91">
        <g id="Gruppe_90" data-name="Gruppe 90" clip-path="url(#clip-path)">
          <path id="Pfad_2655" data-name="Pfad 2655" d="M212.25,13.028a53.863,53.863,0,1,0,53.863,53.863A53.863,53.863,0,0,0,212.25,13.028M180.585,41.993c.857-.313,1.719-.612,2.58-.915q13.993-4.92,27.983-9.85a2.481,2.481,0,0,1,1.781-.011q15.013,5.346,30.04,10.655c.3.105.588.227.93.359a5.8,5.8,0,0,1-.814,2.215c-.644-.22-1.226-.413-1.8-.617Q227.09,38.807,212.9,33.773a2.331,2.331,0,0,0-1.684-.015q-14.732,5.212-29.48,10.379c-.275.1-.554.185-.9.3a4.686,4.686,0,0,1-.772-1.941c-.078-.337.275-.414.515-.5M242,49.179c.206,0,.413,0,.619.008a.449.449,0,0,1,.485.5c0,.581,0,1.162,0,1.71-.768.212-61.057.25-62.014.06a4.321,4.321,0,0,1-.086-1.888c.008-.135.245-.315.41-.365a2.483,2.483,0,0,1,.7-.028H242M188.49,44.511c.446-.178.764-.323,1.093-.435q10.7-3.631,21.406-7.264a3.016,3.016,0,0,1,2.136.022q10.658,3.9,21.333,7.746a1.648,1.648,0,0,1,.568.228c.145.137.311.4.269.56-.159.586-.4,1.149-.637,1.8-.4-.119-.707-.194-1-.3q-10.295-3.731-20.582-7.482a2.862,2.862,0,0,0-2.042-.038q-10.317,3.532-20.648,7.024c-.167.057-.333.12-.5.166-.558.15-.67.106-.864-.421-.181-.492-.328-1-.525-1.6m52.233,35.6c0,.921-.044.97-.93.972q-3.8.011-7.606,0c-.9,0-.951-.057-.951-.956q0-12.6,0-25.205c0-.87.034-.9.892-.9q3.892-.008,7.783,0c.2,0,.406.028.75.053.024.354.061.639.061.924q0,12.558,0,25.117m-11.981,0c0,.921-.043.97-.93.972q-3.8.011-7.606,0c-.9,0-.951-.057-.951-.956q0-12.6,0-25.205c0-.87.034-.9.892-.9q3.892-.008,7.783,0c.2,0,.406.028.75.053.024.354.061.639.061.924q0,12.558,0,25.117m-11.888,0c0,.921-.044.97-.93.972q-3.8.011-7.606,0c-.9,0-.951-.057-.951-.956q0-12.6,0-25.205c0-.87.034-.9.892-.9q3.892-.008,7.783,0c.2,0,.406.028.75.053.024.354.061.639.061.924q0,12.558,0,25.117m-11.981,0c0,.921-.044.97-.93.972q-3.8.011-7.606,0c-.9,0-.951-.057-.951-.956q0-12.6,0-25.205c0-.87.034-.9.892-.9q3.892-.008,7.783,0c.2,0,.406.028.75.053.024.354.061.639.061.924q0,12.558,0,25.117m-11.888,0c0,.921-.044.97-.93.972q-3.8.011-7.606,0c-.9,0-.951-.057-.951-.956q0-12.6,0-25.205c0-.87.034-.9.892-.9q3.892-.008,7.783,0c.2,0,.406.028.75.053.024.354.061.639.061.924q0,12.558,0,25.117m-11.911,3.363c.694-.194,60.962-.233,61.915-.055a3.863,3.863,0,0,1,.043,2.136c-.648.179-60.938.219-61.949.027a5.11,5.11,0,0,1-.009-2.108m-2.438,4.748c.724-.194,65.832-.234,66.932-.033,0,.615.007,1.2,0,1.779-.005.324-.2.472-.513.472-.206,0-.413,0-.619,0H178.747a7.081,7.081,0,0,1-.111-2.222m69.369,5.966c0,.177,0,.354-.014.53a.468.468,0,0,1-.509.489c-.206,0-.412.005-.619.005H177.353c-.147,0-.295.006-.442,0-.595-.031-.687-.089-.7-.664-.031-2.047-.109-1.725,1.576-1.726q17.157-.011,34.313,0h34.578c1.336,0,1.336,0,1.323,1.372" transform="translate(-100 -8.225)" fill="#a82020"/>
          <path id="Pfad_2656" data-name="Pfad 2656" d="M203.993,117.332A58.666,58.666,0,1,1,262.7,58.873a58.616,58.616,0,0,1-58.705,58.459m.018-2.258a56.4,56.4,0,1,0-56.351-56.41,56.379,56.379,0,0,0,56.351,56.41" transform="translate(-91.793 0)" fill="#a82020"/>
        </g>
      </g>
      <g id="Gruppe_93" data-name="Gruppe 93">
        <g id="Gruppe_92" data-name="Gruppe 92" clip-path="url(#clip-path)">
          <path id="Pfad_2657" data-name="Pfad 2657" d="M15.12,459.906a13.252,13.252,0,0,1,3.149-.4c.284,0,.454.17.567.88l1.5,10.411c.426,2.978.738,5.077.993,6.439a19.672,19.672,0,0,1-2.922.255.7.7,0,0,1-.794-.709c-.2-1.447-.341-3.007-.652-6.014l-.794-6.978c-.794,2.44-2.354,7.063-4.17,12.4a1.151,1.151,0,0,1-1.049.936,11.845,11.845,0,0,1-1.844.2c-.681-2.184-3.092-9.559-4.34-13.474-.341,3.4-1.163,9.815-1.56,13.162-.057.312-.2.483-.539.483A8.434,8.434,0,0,1,0,477.238c.483-3.036,1.645-10.326,2.723-16.793l-.114-.539a16,16,0,0,1,3.206-.4c.425.085.652.454,1.163,1.844l3.744,10.382c1.39-3.518,3.234-8.51,4.425-11.4Z" transform="translate(0 -290.118)" fill="#a82020"/>
          <path id="Pfad_2658" data-name="Pfad 2658" d="M65.909,477.032a31.238,31.238,0,0,0-.114-3.177,20.588,20.588,0,0,1,3.12-.341c.426,0,.539.142.539,1.759v5.844c0,2.1,1.248,2.582,2.326,2.582a3.19,3.19,0,0,0,2.127-.851v-8.028c0-.823.086-.993.6-1.106a25.3,25.3,0,0,1,3.036-.2c0,.6-.085,2.638-.085,5.106v4.2c0,1.135.4,1.39,1.163,1.532v.17c-.056.879-.993,1.986-1.759,1.986a2.337,2.337,0,0,1-2.524-1.844,7.333,7.333,0,0,1-2.184,1.446,4.61,4.61,0,0,1-1.816.4c-3.12,0-4.425-2.071-4.425-4.851Z" transform="translate(-41.541 -298.96)" fill="#a82020"/>
          <path id="Pfad_2659" data-name="Pfad 2659" d="M110.57,473.053a5.289,5.289,0,0,1,3.234,1.021c0,.851-.4,2.071-1.475,1.844a4.881,4.881,0,0,0-1.844-.425c-.823,0-1.39.4-1.39,1.021,0,.6.4.908.992,1.22.539.312,1.844.879,2.383,1.191a3.341,3.341,0,0,1,2.014,3.12c0,2.809-2.553,4.17-5.163,4.17a6.022,6.022,0,0,1-2.979-.738,1.248,1.248,0,0,1-.766-1.163,2.286,2.286,0,0,1,.652-1.617,6.868,6.868,0,0,0,3.319,1.078c.964,0,1.588-.4,1.588-1.135,0-.454-.255-.794-1.021-1.22-.738-.4-1.447-.709-2.3-1.163a3.486,3.486,0,0,1-1.986-3.206c0-2.581,2.213-4,4.709-4Z" transform="translate(-66.657 -298.669)" fill="#a82020"/>
          <path id="Pfad_2660" data-name="Pfad 2660" d="M145.515,482.953a3.443,3.443,0,0,1-1.617,2.78,8.723,8.723,0,0,1-2.61.482c-4.17,0-6.468-2.241-6.468-6.439,0-3.4,2.241-6.723,6.1-6.723a4.784,4.784,0,0,1,5.106,4.964,3.878,3.878,0,0,1-.085.936c-.085.425-1.248.879-2.411,1.163a36.138,36.138,0,0,1-5.219.142c.17,2.326,1.929,3.291,3.829,3.291a8.8,8.8,0,0,0,3.319-.709Zm-4.879-7.772c-1.05,0-2.185.993-2.27,3.035a36.5,36.5,0,0,0,3.943,0c.2,0,.369-.255.369-.6.028-1.333-.624-2.439-2.014-2.439Z" transform="translate(-85.121 -298.669)" fill="#a82020"/>
          <path id="Pfad_2661" data-name="Pfad 2661" d="M171.565,477.032a31.4,31.4,0,0,0-.114-3.177,20.583,20.583,0,0,1,3.12-.341c.425,0,.539.142.539,1.759v5.844c0,2.1,1.248,2.582,2.326,2.582a3.19,3.19,0,0,0,2.127-.851v-8.028c0-.823.085-.993.6-1.106a25.3,25.3,0,0,1,3.036-.2c0,.6-.086,2.638-.086,5.106v4.2c0,1.135.4,1.39,1.163,1.532v.17c-.057.879-.993,1.986-1.759,1.986a2.337,2.337,0,0,1-2.525-1.844,7.324,7.324,0,0,1-2.184,1.446,4.608,4.608,0,0,1-1.816.4c-3.12,0-4.425-2.071-4.425-4.851Z" transform="translate(-108.248 -298.96)" fill="#a82020"/>
          <path id="Pfad_2662" data-name="Pfad 2662" d="M216.4,485.109c0,.511-.086.681-.653.794a25.542,25.542,0,0,1-2.978.142c.056-1.532.085-3.262.085-5.134v-4.737a1.73,1.73,0,0,0-.539-1.532v-.17a3.179,3.179,0,0,1,2.241-1.418c1.135,0,1.475,1.078,1.645,1.9a7.2,7.2,0,0,1,4.2-1.9,3.586,3.586,0,0,1,3.489,2.1,7.294,7.294,0,0,1,4.369-2.1c3.262,0,4.141,2.666,4.141,4.907v3.829c0,1.475.028,3.035.085,4.028-.652.057-1.844.227-3.063.227-.4,0-.567-.17-.567-.539v-7.177c0-1.5-.652-2.553-2.156-2.553a3.622,3.622,0,0,0-2.3,1.049v8.34c0,.511-.057.652-.652.738a20.932,20.932,0,0,1-2.979.142c.057-1.532.086-3.262.086-5.163v-2.553c0-1.532-.738-2.553-2.071-2.553a3.763,3.763,0,0,0-2.382,1.049Z" transform="translate(-134.047 -298.669)" fill="#a82020"/>
          <path id="Pfad_2663" data-name="Pfad 2663" d="M279.021,473.053a5.289,5.289,0,0,1,3.234,1.021c0,.851-.4,2.071-1.475,1.844a4.88,4.88,0,0,0-1.844-.425c-.823,0-1.39.4-1.39,1.021,0,.6.4.908.993,1.22.539.312,1.844.879,2.383,1.191a3.341,3.341,0,0,1,2.014,3.12c0,2.809-2.553,4.17-5.163,4.17a6.024,6.024,0,0,1-2.979-.738,1.247,1.247,0,0,1-.766-1.163,2.286,2.286,0,0,1,.652-1.617A6.868,6.868,0,0,0,278,483.776c.964,0,1.588-.4,1.588-1.135,0-.454-.255-.794-1.021-1.22-.738-.4-1.447-.709-2.3-1.163a3.486,3.486,0,0,1-1.985-3.206c0-2.581,2.213-4,4.709-4Z" transform="translate(-173.011 -298.669)" fill="#a82020"/>
          <path id="Pfad_2664" data-name="Pfad 2664" d="M307.661,473.053a12.047,12.047,0,0,1,2.27.284,14.323,14.323,0,0,0,2.383.4,6.687,6.687,0,0,0,2.1-.312,2.581,2.581,0,0,1,.114.766,1.494,1.494,0,0,1-1.418,1.7,7.025,7.025,0,0,1-.823.056,4.091,4.091,0,0,1,.312,1.532c0,2.922-2.269,4.283-5.021,4.283a4.227,4.227,0,0,1-.993-.085c-.2.17-.511.426-.511.652,0,.312.2.653,1.249.766,1.049.085,2.269.17,3.375.227,2.666.2,3.659,1.7,3.659,3.347,0,3.347-3.347,5.248-6.921,5.248-3.376,0-5.7-1.617-5.7-3.716,0-1.277,1.532-2.156,2.61-2.667a2.775,2.775,0,0,1-1.759-2.439c0-.114.057-.227.312-.369a11.056,11.056,0,0,0,1.929-1.447,3.747,3.747,0,0,1-2.5-3.687c0-2.723,2.3-4.539,5.3-4.539ZM304.91,487.69c0,1.219,1.56,1.9,3.318,1.9,1.674,0,3.035-.652,3.035-1.844,0-.709-.369-1.3-1.844-1.5a15.723,15.723,0,0,0-2.525-.17,2.352,2.352,0,0,0-1.163.255,1.467,1.467,0,0,0-.822,1.333Zm2.638-12.651c-1.192,0-1.9,1.106-1.9,2.383,0,1.532.879,2.382,2.013,2.382,1.163,0,1.9-1.021,1.9-2.354,0-1.22-.539-2.411-1.985-2.411Z" transform="translate(-190.504 -298.669)" fill="#a82020"/>
          <path id="Pfad_2665" data-name="Pfad 2665" d="M340.707,466.683a31.443,31.443,0,0,0-.113-3.177,20.578,20.578,0,0,1,3.12-.341c.425,0,.539.142.539,1.759v5.844c0,2.1,1.248,2.582,2.326,2.582a3.192,3.192,0,0,0,2.128-.851v-8.028c0-.823.085-.993.6-1.106a25.3,25.3,0,0,1,3.035-.2c0,.6-.085,2.638-.085,5.106v4.2c0,1.135.4,1.39,1.163,1.532v.17c-.057.879-.993,1.986-1.759,1.986a2.337,2.337,0,0,1-2.525-1.844,7.329,7.329,0,0,1-2.184,1.447,4.607,4.607,0,0,1-1.815.4c-3.12,0-4.425-2.071-4.425-4.851Zm3.092-9.559a1.614,1.614,0,0,1,1.532,1.674,1.632,1.632,0,0,1-1.7,1.787,1.576,1.576,0,0,1-1.617-1.674,1.674,1.674,0,0,1,1.759-1.787Zm5.5,0a1.6,1.6,0,0,1,1.56,1.674,1.632,1.632,0,0,1-1.7,1.787,1.591,1.591,0,0,1-1.617-1.674,1.652,1.652,0,0,1,1.73-1.787Z" transform="translate(-215.039 -288.612)" fill="#a82020"/>
          <path id="Pfad_2666" data-name="Pfad 2666" d="M388.078,479.3a2.4,2.4,0,0,1-.539,2.1,4.951,4.951,0,0,1-3.149.88c-2.922,0-3.858-1.844-3.858-3.858v-6.638c-1.106,0-1.617-.511-1.617-.851a21.76,21.76,0,0,1,3.234-3.234,3.551,3.551,0,0,1,2.184-.879,21.323,21.323,0,0,0-.17,2.638h4.2c-.341,2.014-.993,2.156-1.56,2.213-.624.057-1.589.114-2.723.114a59.854,59.854,0,0,0,.028,6.1c.142,1.362.908,1.872,1.872,1.872a4.33,4.33,0,0,0,1.985-.511Z" transform="translate(-239.234 -294.734)" fill="#a82020"/>
          <path id="Pfad_2667" data-name="Pfad 2667" d="M418.006,482.953a3.443,3.443,0,0,1-1.616,2.78,8.726,8.726,0,0,1-2.61.482c-4.17,0-6.467-2.241-6.467-6.439,0-3.4,2.241-6.723,6.1-6.723a4.784,4.784,0,0,1,5.106,4.964,3.9,3.9,0,0,1-.085.936c-.086.425-1.248.879-2.411,1.163a36.143,36.143,0,0,1-5.219.142c.17,2.326,1.929,3.291,3.829,3.291a8.8,8.8,0,0,0,3.319-.709Zm-4.879-7.772c-1.05,0-2.185.993-2.269,3.035a36.495,36.495,0,0,0,3.943,0c.2,0,.369-.255.369-.6.028-1.333-.624-2.439-2.014-2.439Z" transform="translate(-257.163 -298.669)" fill="#a82020"/>
          <path id="Pfad_2668" data-name="Pfad 2668" d="M447.392,473.053a5.288,5.288,0,0,1,3.234,1.021c0,.851-.4,2.071-1.475,1.844a4.881,4.881,0,0,0-1.844-.425c-.823,0-1.39.4-1.39,1.021,0,.6.4.908.993,1.22.539.312,1.844.879,2.383,1.191a3.342,3.342,0,0,1,2.014,3.12c0,2.809-2.553,4.17-5.162,4.17a6.024,6.024,0,0,1-2.979-.738,1.248,1.248,0,0,1-.766-1.163,2.286,2.286,0,0,1,.652-1.617,6.868,6.868,0,0,0,3.319,1.078c.964,0,1.588-.4,1.588-1.135,0-.454-.255-.794-1.021-1.22-.738-.4-1.447-.709-2.3-1.163a3.486,3.486,0,0,1-1.985-3.206c0-2.581,2.213-4,4.709-4Z" transform="translate(-279.315 -298.669)" fill="#a82020"/>
          <path id="Pfad_2669" data-name="Pfad 2669" d="M475.266,456.662a1.736,1.736,0,0,1,1.787,1.872,1.873,1.873,0,0,1-1.872,1.957,1.758,1.758,0,0,1-1.844-1.872,1.9,1.9,0,0,1,1.9-1.957ZM477,474.845c0,.511-.2.653-.851.738a23.311,23.311,0,0,1-2.78.114c.028-1.163.086-2.808.086-4.453v-4.851a30.8,30.8,0,0,0-.114-3.177,17.474,17.474,0,0,1,3.121-.341c.425,0,.539.142.539,1.759Z" transform="translate(-298.848 -288.32)" fill="#a82020"/>
          <path id="Pfad_2670" data-name="Pfad 2670" d="M501.5,482.953a3.443,3.443,0,0,1-1.617,2.78,8.721,8.721,0,0,1-2.61.482c-4.17,0-6.467-2.241-6.467-6.439,0-3.4,2.241-6.723,6.1-6.723a4.784,4.784,0,0,1,5.106,4.964,3.9,3.9,0,0,1-.085.936c-.086.425-1.248.879-2.411,1.163a36.138,36.138,0,0,1-5.219.142c.17,2.326,1.929,3.291,3.829,3.291a8.8,8.8,0,0,0,3.319-.709Zm-4.879-7.772c-1.05,0-2.184.993-2.269,3.035a36.495,36.495,0,0,0,3.943,0c.2,0,.369-.255.369-.6.028-1.333-.624-2.439-2.014-2.439Z" transform="translate(-309.878 -298.669)" fill="#a82020"/>
          <path id="Pfad_2671" data-name="Pfad 2671" d="M530.9,473.053a12.044,12.044,0,0,1,2.269.284,14.322,14.322,0,0,0,2.383.4,6.684,6.684,0,0,0,2.1-.312,2.58,2.58,0,0,1,.114.766,1.494,1.494,0,0,1-1.419,1.7,7.023,7.023,0,0,1-.822.056,4.1,4.1,0,0,1,.312,1.532c0,2.922-2.269,4.283-5.021,4.283a4.227,4.227,0,0,1-.993-.085c-.2.17-.511.426-.511.652,0,.312.2.653,1.249.766,1.05.085,2.269.17,3.375.227,2.667.2,3.659,1.7,3.659,3.347,0,3.347-3.347,5.248-6.922,5.248-3.376,0-5.7-1.617-5.7-3.716,0-1.277,1.532-2.156,2.61-2.667a2.775,2.775,0,0,1-1.759-2.439c0-.114.057-.227.312-.369a11.043,11.043,0,0,0,1.929-1.447,3.747,3.747,0,0,1-2.5-3.687c0-2.723,2.3-4.539,5.3-4.539Zm-2.752,14.637c0,1.219,1.56,1.9,3.319,1.9,1.674,0,3.035-.652,3.035-1.844,0-.709-.369-1.3-1.844-1.5a15.72,15.72,0,0,0-2.524-.17,2.353,2.353,0,0,0-1.163.255,1.467,1.467,0,0,0-.822,1.333Zm2.638-12.651c-1.191,0-1.9,1.106-1.9,2.383,0,1.532.879,2.382,2.014,2.382,1.163,0,1.9-1.021,1.9-2.354,0-1.22-.539-2.411-1.985-2.411Z" transform="translate(-331.449 -298.669)" fill="#a82020"/>
          <path id="Pfad_2672" data-name="Pfad 2672" d="M572.6,482.953a3.444,3.444,0,0,1-1.617,2.78,8.722,8.722,0,0,1-2.61.482c-4.17,0-6.468-2.241-6.468-6.439,0-3.4,2.241-6.723,6.1-6.723a4.784,4.784,0,0,1,5.106,4.964,3.881,3.881,0,0,1-.085.936c-.085.425-1.248.879-2.411,1.163a36.137,36.137,0,0,1-5.219.142c.17,2.326,1.929,3.291,3.829,3.291a8.8,8.8,0,0,0,3.319-.709Zm-4.879-7.772c-1.05,0-2.185.993-2.27,3.035a36.5,36.5,0,0,0,3.943,0c.2,0,.369-.255.369-.6.028-1.333-.624-2.439-2.014-2.439Z" transform="translate(-354.768 -298.669)" fill="#a82020"/>
          <path id="Pfad_2673" data-name="Pfad 2673" d="M598.883,459.334a27.841,27.841,0,0,0-.113-2.979,12.619,12.619,0,0,1,3.12-.539c.426,0,.539.142.539,1.844v13.588c0,1.39.057,2.922.114,3.744a27.87,27.87,0,0,1-3.262.227c-.283,0-.4-.085-.4-.369Z" transform="translate(-378.042 -287.786)" fill="#a82020"/>
          <path id="Pfad_2674" data-name="Pfad 2674" d="M130.4,381.648a6.1,6.1,0,0,1,6.35,6.41c0,3.523-2.249,6.629-6.49,6.629-4.618,0-6.409-3.4-6.409-6.41,0-3.762,2.428-6.629,6.529-6.629Zm-.259,1.652c-1.871,0-3.523,1.493-3.523,4.738s1.792,5,3.842,5c2.21,0,3.584-1.752,3.584-4.817,0-2.568-1.294-4.917-3.882-4.917Zm-1.871-4.937a1.114,1.114,0,0,1,1.075,1.155,1.152,1.152,0,0,1-1.194,1.274A1.11,1.11,0,0,1,127,379.617a1.17,1.17,0,0,1,1.254-1.254Zm4.279,0a1.09,1.09,0,0,1,1.075,1.155,1.142,1.142,0,0,1-1.194,1.274,1.113,1.113,0,0,1-1.115-1.174,1.16,1.16,0,0,1,1.214-1.254Z" transform="translate(-78.195 -238.885)" fill="#1a1818"/>
          <path id="Pfad_2675" data-name="Pfad 2675" d="M166.446,397.426a3.71,3.71,0,0,1,2.269.717c0,.6-.278,1.453-1.035,1.294a3.427,3.427,0,0,0-1.294-.3c-.577,0-.975.279-.975.717,0,.418.278.637.7.856.379.219,1.294.617,1.672.836a2.345,2.345,0,0,1,1.413,2.19c0,1.971-1.791,2.926-3.623,2.926a4.226,4.226,0,0,1-2.09-.518.876.876,0,0,1-.537-.816,1.6,1.6,0,0,1,.458-1.135,4.818,4.818,0,0,0,2.329.756c.677,0,1.114-.279,1.114-.8,0-.319-.179-.557-.716-.856-.518-.279-1.015-.5-1.612-.816a2.446,2.446,0,0,1-1.393-2.249c0-1.811,1.553-2.807,3.3-2.807Z" transform="translate(-102.875 -250.921)" fill="#1a1818"/>
          <path id="Pfad_2676" data-name="Pfad 2676" d="M188.436,401.811a1.686,1.686,0,0,1-.378,1.473,3.474,3.474,0,0,1-2.21.617,2.445,2.445,0,0,1-2.707-2.707v-4.658c-.776,0-1.135-.358-1.135-.6a15.261,15.261,0,0,1,2.269-2.269,2.49,2.49,0,0,1,1.533-.617,14.928,14.928,0,0,0-.119,1.851h2.946c-.239,1.413-.7,1.513-1.094,1.553-.438.04-1.115.08-1.911.08a42.055,42.055,0,0,0,.02,4.28c.1.955.637,1.314,1.314,1.314a3.041,3.041,0,0,0,1.393-.358Z" transform="translate(-114.912 -248.159)" fill="#1a1818"/>
          <path id="Pfad_2677" data-name="Pfad 2677" d="M209.436,404.373a2.415,2.415,0,0,1-1.135,1.951,6.122,6.122,0,0,1-1.831.338c-2.926,0-4.538-1.573-4.538-4.519,0-2.389,1.572-4.718,4.279-4.718a3.358,3.358,0,0,1,3.583,3.484,2.739,2.739,0,0,1-.06.657c-.06.3-.876.617-1.692.816a25.369,25.369,0,0,1-3.663.1,2.441,2.441,0,0,0,2.687,2.309,6.178,6.178,0,0,0,2.329-.5Zm-3.424-5.454c-.737,0-1.532.7-1.592,2.13a25.5,25.5,0,0,0,2.767,0c.139,0,.259-.179.259-.418.02-.936-.438-1.712-1.413-1.712Z" transform="translate(-127.493 -250.921)" fill="#1a1818"/>
          <path id="Pfad_2678" data-name="Pfad 2678" d="M226.988,398.421a2.344,2.344,0,0,1,1.553-1c.836,0,1.214.856,1.214,2.09.6-1.354,1.433-2.09,2.488-2.09a1.471,1.471,0,0,1,1.035.418,2.406,2.406,0,0,1-.338,1.553.8.8,0,0,1-.756.557,2.454,2.454,0,0,0-.856-.139c-.318,0-.9.259-1.234,1.095a2.661,2.661,0,0,0-.159.956v4.041c0,.3-.04.458-.458.537a14.416,14.416,0,0,1-2.09.1c.04-1.075.059-2.289.059-3.623v-3.364a1.241,1.241,0,0,0-.457-1.035Z" transform="translate(-143.312 -250.921)" fill="#1a1818"/>
          <path id="Pfad_2679" data-name="Pfad 2679" d="M247.183,398.421a2.343,2.343,0,0,1,1.553-1c.836,0,1.214.856,1.214,2.09.6-1.354,1.433-2.09,2.488-2.09a1.471,1.471,0,0,1,1.035.418,2.406,2.406,0,0,1-.338,1.553.8.8,0,0,1-.756.557,2.453,2.453,0,0,0-.856-.139c-.318,0-.9.259-1.234,1.095a2.662,2.662,0,0,0-.159.956v4.041c0,.3-.04.458-.458.537a14.421,14.421,0,0,1-2.09.1c.039-1.075.059-2.289.059-3.623v-3.364a1.242,1.242,0,0,0-.457-1.035Z" transform="translate(-156.063 -250.921)" fill="#1a1818"/>
          <path id="Pfad_2680" data-name="Pfad 2680" d="M273.317,404.373a2.415,2.415,0,0,1-1.135,1.951,6.122,6.122,0,0,1-1.831.338c-2.926,0-4.538-1.573-4.538-4.519,0-2.389,1.572-4.718,4.279-4.718a3.358,3.358,0,0,1,3.583,3.484,2.714,2.714,0,0,1-.06.657c-.06.3-.876.617-1.692.816a25.371,25.371,0,0,1-3.663.1,2.441,2.441,0,0,0,2.687,2.309,6.177,6.177,0,0,0,2.329-.5Zm-3.424-5.454c-.737,0-1.532.7-1.592,2.13a25.5,25.5,0,0,0,2.767,0c.139,0,.259-.179.259-.418.02-.936-.438-1.712-1.413-1.712Z" transform="translate(-167.825 -250.921)" fill="#1a1818"/>
          <path id="Pfad_2681" data-name="Pfad 2681" d="M293.3,385.923a1.218,1.218,0,0,1,1.254,1.314,1.314,1.314,0,0,1-1.314,1.374,1.233,1.233,0,0,1-1.294-1.313,1.332,1.332,0,0,1,1.334-1.374Zm1.214,12.76c0,.358-.139.458-.6.518a16.376,16.376,0,0,1-1.951.08c.02-.816.06-1.971.06-3.125v-3.4a21.509,21.509,0,0,0-.08-2.229,12.272,12.272,0,0,1,2.19-.239c.3,0,.378.1.378,1.234Z" transform="translate(-184.325 -243.658)" fill="#1a1818"/>
          <path id="Pfad_2682" data-name="Pfad 2682" d="M311.823,404.493a2.539,2.539,0,0,1-.677,1.632,4.379,4.379,0,0,1-2.29.538c-2.628,0-4.6-1.533-4.6-4.4a4.732,4.732,0,0,1,4.936-4.837,4.2,4.2,0,0,1,2.728.776c-.02.677-.358,1.433-1.155,1.294a4.877,4.877,0,0,0-1.513-.279,2.453,2.453,0,0,0-2.468,2.707,2.659,2.659,0,0,0,2.806,2.866,6.215,6.215,0,0,0,2.17-.358Z" transform="translate(-192.099 -250.921)" fill="#1a1818"/>
          <path id="Pfad_2683" data-name="Pfad 2683" d="M331.774,390.924a4.34,4.34,0,0,1,2.747-1.135c1.891,0,2.946,1.374,2.946,3.563V396c0,.975.02,2.07.06,2.747a16.492,16.492,0,0,1-2.15.159c-.279,0-.4-.119-.4-.418v-4.957c0-1.174-.617-1.831-1.533-1.831a2.828,2.828,0,0,0-1.672.637v5.892c0,.378-.059.5-.458.577a17.93,17.93,0,0,1-2.091.1c.04-1.075.06-2.269.06-3.6v-7.465a20.372,20.372,0,0,0-.08-2.13,10.277,10.277,0,0,1,2.19-.378c.3,0,.378.1.378,1.314Z" transform="translate(-207.849 -243.284)" fill="#1a1818"/>
          <path id="Pfad_2684" data-name="Pfad 2684" d="M359.988,385.923a1.218,1.218,0,0,1,1.254,1.314,1.314,1.314,0,0,1-1.313,1.374,1.233,1.233,0,0,1-1.294-1.313,1.332,1.332,0,0,1,1.334-1.374Zm1.214,12.76c0,.358-.139.458-.6.518a16.373,16.373,0,0,1-1.951.08c.02-.816.06-1.971.06-3.125v-3.4a21.617,21.617,0,0,0-.08-2.229,12.268,12.268,0,0,1,2.19-.239c.3,0,.379.1.379,1.234Z" transform="translate(-226.429 -243.658)" fill="#1a1818"/>
          <path id="Pfad_2685" data-name="Pfad 2685" d="M373.908,397.426a3.711,3.711,0,0,1,2.269.717c0,.6-.278,1.453-1.035,1.294a3.427,3.427,0,0,0-1.294-.3c-.577,0-.975.279-.975.717,0,.418.278.637.7.856.379.219,1.294.617,1.672.836a2.345,2.345,0,0,1,1.413,2.19c0,1.971-1.791,2.926-3.623,2.926a4.226,4.226,0,0,1-2.09-.518.876.876,0,0,1-.537-.816,1.6,1.6,0,0,1,.458-1.135,4.82,4.82,0,0,0,2.329.756c.677,0,1.114-.279,1.114-.8,0-.319-.179-.557-.716-.856-.518-.279-1.015-.5-1.612-.816a2.446,2.446,0,0,1-1.393-2.249c0-1.811,1.552-2.807,3.3-2.807Z" transform="translate(-233.86 -250.921)" fill="#1a1818"/>
          <path id="Pfad_2686" data-name="Pfad 2686" d="M398.545,404.493a2.543,2.543,0,0,1-.677,1.632,4.38,4.38,0,0,1-2.29.538c-2.628,0-4.6-1.533-4.6-4.4a4.733,4.733,0,0,1,4.937-4.837,4.2,4.2,0,0,1,2.728.776c-.02.677-.358,1.433-1.155,1.294a4.882,4.882,0,0,0-1.513-.279,2.453,2.453,0,0,0-2.468,2.707,2.659,2.659,0,0,0,2.807,2.866,6.216,6.216,0,0,0,2.17-.358Z" transform="translate(-246.851 -250.921)" fill="#1a1818"/>
          <path id="Pfad_2687" data-name="Pfad 2687" d="M418.5,390.924a4.339,4.339,0,0,1,2.747-1.135c1.891,0,2.946,1.374,2.946,3.563V396c0,.975.02,2.07.06,2.747a16.491,16.491,0,0,1-2.15.159c-.279,0-.4-.119-.4-.418v-4.957c0-1.174-.617-1.831-1.533-1.831a2.828,2.828,0,0,0-1.672.637v5.892c0,.378-.06.5-.458.577a17.927,17.927,0,0,1-2.091.1c.04-1.075.06-2.269.06-3.6v-7.465a20.405,20.405,0,0,0-.08-2.13,10.275,10.275,0,0,1,2.19-.378c.3,0,.378.1.378,1.314Z" transform="translate(-262.602 -243.284)" fill="#1a1818"/>
          <path id="Pfad_2688" data-name="Pfad 2688" d="M451.079,404.373a2.416,2.416,0,0,1-1.135,1.951,6.123,6.123,0,0,1-1.831.338c-2.926,0-4.539-1.573-4.539-4.519,0-2.389,1.573-4.718,4.28-4.718a3.358,3.358,0,0,1,3.583,3.484,2.721,2.721,0,0,1-.06.657c-.06.3-.876.617-1.692.816a25.364,25.364,0,0,1-3.663.1,2.441,2.441,0,0,0,2.687,2.309,6.174,6.174,0,0,0,2.329-.5Zm-3.424-5.454c-.737,0-1.533.7-1.593,2.13a25.5,25.5,0,0,0,2.767,0c.139,0,.259-.179.259-.418.02-.936-.438-1.712-1.413-1.712Z" transform="translate(-280.057 -250.921)" fill="#1a1818"/>
          <path id="Pfad_2689" data-name="Pfad 2689" d="M471.7,397.426a3.711,3.711,0,0,1,2.269.717c0,.6-.278,1.453-1.035,1.294a3.428,3.428,0,0,0-1.294-.3c-.577,0-.975.279-.975.717,0,.418.278.637.7.856.379.219,1.294.617,1.672.836a2.346,2.346,0,0,1,1.413,2.19c0,1.971-1.791,2.926-3.623,2.926a4.226,4.226,0,0,1-2.09-.518.876.876,0,0,1-.537-.816,1.6,1.6,0,0,1,.458-1.135,4.821,4.821,0,0,0,2.329.756c.677,0,1.114-.279,1.114-.8,0-.319-.179-.557-.716-.856-.518-.279-1.015-.5-1.612-.816a2.446,2.446,0,0,1-1.393-2.249c0-1.811,1.553-2.807,3.3-2.807Z" transform="translate(-295.601 -250.921)" fill="#1a1818"/>
        </g>
      </g>
    </g>
  </g>
</svg>
