<svg id="Gruppe_95" data-name="Gruppe 95" xmlns="http://www.w3.org/2000/svg" xmlns:xlink="http://www.w3.org/1999/xlink" width="308.516" height="265.568" viewBox="0 0 308.516 265.568">
  <defs>
    <clipPath id="clip-path">
      <rect id="Rechteck_422" data-name="Rechteck 422" width="308.516" height="265.568" fill="none"/>
    </clipPath>
  </defs>
  <g id="Gruppe_89" data-name="Gruppe 89">
    <g id="Gruppe_88" data-name="Gruppe 88" clip-path="url(#clip-path)">
      <path id="Pfad_2650" data-name="Pfad 2650" d="M234.073,130.726c-1.014.012-1.1.1-1.1,1.125q-.009,14.143,0,28.285a9.646,9.646,0,0,0,.128,1.091c2.157.047,4.195.107,6.281-.028V130.851a8.218,8.218,0,0,0-.942-.124c-1.457-.011-2.914-.019-4.37,0" transform="translate(-114.95 -64.496)" fill="#a82020"/>
      <path id="Pfad_2651" data-name="Pfad 2651" d="M298.823,130.726c-1.014.012-1.1.1-1.1,1.125q-.009,14.143,0,28.285a9.646,9.646,0,0,0,.128,1.091c2.157.047,4.195.107,6.281-.028V130.851a8.217,8.217,0,0,0-.942-.124c-1.457-.011-2.914-.019-4.37,0" transform="translate(-146.898 -64.496)" fill="#a82020"/>
      <path id="Pfad_2652" data-name="Pfad 2652" d="M266.323,130.726c-1.014.012-1.1.1-1.1,1.125q-.009,14.143,0,28.285a9.646,9.646,0,0,0,.128,1.091c2.157.047,4.195.107,6.281-.028V130.851a8.216,8.216,0,0,0-.942-.124c-1.457-.011-2.914-.019-4.37,0" transform="translate(-130.862 -64.496)" fill="#a82020"/>
      <path id="Pfad_2653" data-name="Pfad 2653" d="M363.573,130.726c-1.014.012-1.1.1-1.1,1.125q-.009,14.143,0,28.285a9.632,9.632,0,0,0,.128,1.091c2.157.047,4.195.107,6.281-.028V130.851a8.215,8.215,0,0,0-.942-.124c-1.457-.011-2.914-.019-4.37,0" transform="translate(-178.846 -64.496)" fill="#a82020"/>
      <path id="Pfad_2654" data-name="Pfad 2654" d="M331.073,130.726c-1.014.012-1.1.1-1.1,1.125q-.009,14.143,0,28.285a9.632,9.632,0,0,0,.128,1.091c2.157.047,4.195.107,6.281-.028V130.851a8.217,8.217,0,0,0-.942-.124c-1.457-.011-2.914-.019-4.37,0" transform="translate(-162.81 -64.496)" fill="#a82020"/>
    </g>
  </g>
  <g id="Gruppe_91" data-name="Gruppe 91">
    <g id="Gruppe_90" data-name="Gruppe 90" clip-path="url(#clip-path)">
      <path id="Pfad_2655" data-name="Pfad 2655" d="M232.408,13.028a74.021,74.021,0,1,0,74.021,74.021,74.021,74.021,0,0,0-74.021-74.021m-43.516,39.8c1.177-.431,2.362-.841,3.545-1.257q19.23-6.761,38.455-13.537a3.41,3.41,0,0,1,2.448-.015q20.632,7.347,41.282,14.642c.408.144.809.312,1.278.493a7.975,7.975,0,0,1-1.119,3.044c-.885-.3-1.684-.568-2.478-.849q-19.5-6.9-39-13.819a3.2,3.2,0,0,0-2.314-.021q-20.246,7.163-40.513,14.263c-.378.133-.761.254-1.234.412a6.439,6.439,0,0,1-1.061-2.668c-.107-.463.378-.569.708-.69m84.4,9.875c.284,0,.567,0,.851.012a.618.618,0,0,1,.666.692c0,.8,0,1.6,0,2.35-1.055.291-83.906.343-85.222.083a5.938,5.938,0,0,1-.118-2.595c.012-.185.337-.433.563-.5a3.412,3.412,0,0,1,.966-.039H273.3m-73.54-6.414c.613-.245,1.05-.444,1.5-.6q14.709-4.989,29.417-9.983a4.145,4.145,0,0,1,2.935.03q14.647,5.354,29.316,10.646a2.265,2.265,0,0,1,.78.313c.2.188.428.555.369.77-.219.8-.55,1.58-.875,2.467-.549-.164-.972-.266-1.379-.413Q247.673,54.4,233.536,49.243a3.934,3.934,0,0,0-2.807-.052q-14.178,4.853-28.375,9.652c-.229.078-.457.165-.691.228-.767.207-.92.145-1.187-.579-.249-.676-.451-1.368-.721-2.2m71.781,48.926c0,1.266-.06,1.332-1.278,1.336q-5.226.015-10.452,0c-1.237,0-1.307-.078-1.308-1.314q-.005-17.319,0-34.638c0-1.2.047-1.24,1.225-1.243q5.348-.011,10.7,0c.279,0,.558.038,1.03.072.033.486.084.878.084,1.27q.006,17.258,0,34.517m-16.464,0c0,1.266-.06,1.332-1.278,1.336q-5.226.015-10.452,0c-1.237,0-1.307-.078-1.308-1.314q-.005-17.319,0-34.638c0-1.2.047-1.24,1.225-1.243q5.348-.011,10.7,0c.279,0,.558.038,1.03.072.033.486.084.878.084,1.27q.006,17.258,0,34.517m-16.338,0c0,1.266-.06,1.332-1.278,1.336q-5.226.015-10.452,0c-1.237,0-1.307-.078-1.308-1.314q-.005-17.319,0-34.638c0-1.2.047-1.24,1.225-1.243q5.348-.011,10.7,0c.279,0,.558.038,1.03.072.033.486.084.878.084,1.27q.006,17.258,0,34.517m-16.464,0c0,1.266-.06,1.332-1.278,1.336q-5.226.015-10.452,0c-1.237,0-1.307-.078-1.308-1.314q-.005-17.319,0-34.638c0-1.2.047-1.24,1.225-1.243q5.348-.011,10.7,0c.279,0,.558.038,1.03.072.033.486.084.878.084,1.27q.006,17.258,0,34.517m-16.338,0c0,1.266-.06,1.332-1.278,1.336q-5.226.015-10.452,0c-1.237,0-1.307-.078-1.308-1.314q-.005-17.319,0-34.638c0-1.2.047-1.24,1.225-1.243q5.348-.011,10.7,0c.279,0,.558.038,1.03.072.033.486.084.878.084,1.27q.006,17.258,0,34.517m-16.369,4.622c.954-.266,83.777-.321,85.086-.075a5.309,5.309,0,0,1,.06,2.936c-.891.246-83.743.3-85.133.037a7.023,7.023,0,0,1-.013-2.9m-3.351,6.525c.995-.267,90.468-.322,91.981-.045,0,.845.009,1.645,0,2.445-.007.445-.27.649-.705.648-.283,0-.567,0-.851,0H186.367a9.732,9.732,0,0,1-.153-3.053m95.33,8.2c0,.243,0,.486-.019.728a.643.643,0,0,1-.7.672c-.284,0-.567.007-.851.007H184.451c-.2,0-.405.008-.607,0-.818-.043-.945-.122-.956-.912-.042-2.813-.149-2.371,2.165-2.372q23.577-.015,47.155-.005h47.519c1.836,0,1.836,0,1.818,1.885" transform="translate(-78.15 -6.428)" fill="#a82020"/>
      <path id="Pfad_2656" data-name="Pfad 2656" d="M225.925,161.242a80.553,80.553,0,0,1-80.536-80.833C145.477,35.164,182.594-.255,226.482,0c43.382.253,80.246,35.539,80.117,80.9a80.572,80.572,0,0,1-80.675,80.336m.025-3.1a77.5,77.5,0,1,0-77.44-77.52,77.478,77.478,0,0,0,77.44,77.52" transform="translate(-71.736 0)" fill="#a82020"/>
    </g>
  </g>
  <g id="Gruppe_93" data-name="Gruppe 93">
    <g id="Gruppe_92" data-name="Gruppe 92" clip-path="url(#clip-path)">
      <path id="Pfad_2657" data-name="Pfad 2657" d="M20.778,460.055a18.211,18.211,0,0,1,4.327-.546c.39,0,.624.234.78,1.209l2.066,14.307c.585,4.093,1.014,6.977,1.365,8.849a27.033,27.033,0,0,1-4.015.351.963.963,0,0,1-1.091-.975c-.273-1.988-.468-4.132-.9-8.264L22.22,465.4c-1.092,3.353-3.236,9.706-5.731,17.035a1.581,1.581,0,0,1-1.442,1.286,16.276,16.276,0,0,1-2.534.273c-.936-3-4.249-13.137-5.965-18.516-.468,4.678-1.6,13.487-2.144,18.087-.078.429-.273.663-.741.663A11.589,11.589,0,0,1,0,483.873c.663-4.172,2.261-14.19,3.743-23.078l-.157-.741a21.99,21.99,0,0,1,4.405-.546c.585.117.9.624,1.6,2.534l5.145,14.268c1.91-4.834,4.444-11.695,6.082-15.671Z" transform="translate(0 -226.726)" fill="#a82020"/>
      <path id="Pfad_2658" data-name="Pfad 2658" d="M65.952,478.348a42.928,42.928,0,0,0-.157-4.366,28.294,28.294,0,0,1,4.288-.468c.585,0,.741.2.741,2.417v8.03c0,2.885,1.715,3.548,3.2,3.548a4.383,4.383,0,0,0,2.924-1.17V475.307c0-1.131.118-1.364.818-1.52a34.772,34.772,0,0,1,4.172-.273c0,.819-.117,3.626-.117,7.017v5.77c0,1.559.545,1.91,1.6,2.1v.234c-.077,1.208-1.364,2.729-2.417,2.729a3.212,3.212,0,0,1-3.469-2.534,10.078,10.078,0,0,1-3,1.988,6.335,6.335,0,0,1-2.5.546c-4.288,0-6.081-2.846-6.081-6.666Z" transform="translate(-32.464 -233.636)" fill="#a82020"/>
      <path id="Pfad_2659" data-name="Pfad 2659" d="M112.439,473.053a7.269,7.269,0,0,1,4.444,1.4c0,1.169-.546,2.846-2.027,2.534a6.707,6.707,0,0,0-2.533-.585c-1.131,0-1.91.546-1.91,1.4,0,.819.546,1.247,1.364,1.676.741.429,2.534,1.208,3.275,1.637a4.592,4.592,0,0,1,2.768,4.287c0,3.86-3.509,5.731-7.095,5.731a8.277,8.277,0,0,1-4.093-1.014,1.714,1.714,0,0,1-1.052-1.6,3.142,3.142,0,0,1,.9-2.222,9.438,9.438,0,0,0,4.561,1.481c1.325,0,2.183-.546,2.183-1.559,0-.624-.351-1.092-1.4-1.676-1.014-.546-1.988-.975-3.158-1.6a4.791,4.791,0,0,1-2.729-4.405c0-3.547,3.041-5.5,6.471-5.5Z" transform="translate(-52.092 -233.408)" fill="#a82020"/>
      <path id="Pfad_2660" data-name="Pfad 2660" d="M149.518,486.658a4.731,4.731,0,0,1-2.222,3.82,11.987,11.987,0,0,1-3.587.663c-5.73,0-8.888-3.08-8.888-8.849,0-4.678,3.08-9.239,8.382-9.239a6.575,6.575,0,0,1,7.017,6.822,5.328,5.328,0,0,1-.117,1.287c-.117.585-1.715,1.208-3.314,1.6a49.654,49.654,0,0,1-7.172.2c.234,3.2,2.651,4.522,5.262,4.522a12.1,12.1,0,0,0,4.561-.975Zm-6.7-10.681c-1.443,0-3,1.364-3.119,4.171a50.187,50.187,0,0,0,5.419,0c.273,0,.507-.351.507-.819.039-1.832-.858-3.352-2.768-3.352Z" transform="translate(-66.522 -233.408)" fill="#a82020"/>
      <path id="Pfad_2661" data-name="Pfad 2661" d="M171.607,478.348a43.148,43.148,0,0,0-.156-4.366,28.287,28.287,0,0,1,4.288-.468c.585,0,.741.2.741,2.417v8.03c0,2.885,1.715,3.548,3.2,3.548a4.384,4.384,0,0,0,2.924-1.17V475.307c0-1.131.117-1.364.818-1.52a34.771,34.771,0,0,1,4.172-.273c0,.819-.118,3.626-.118,7.017v5.77c0,1.559.546,1.91,1.6,2.1v.234c-.078,1.208-1.364,2.729-2.417,2.729a3.212,3.212,0,0,1-3.47-2.534,10.065,10.065,0,0,1-3,1.988,6.333,6.333,0,0,1-2.495.546c-4.288,0-6.081-2.846-6.081-6.666Z" transform="translate(-84.595 -233.636)" fill="#a82020"/>
      <path id="Pfad_2662" data-name="Pfad 2662" d="M217.927,489.62c0,.7-.118.936-.9,1.092a35.1,35.1,0,0,1-4.093.2c.077-2.1.116-4.483.116-7.056v-6.51a2.378,2.378,0,0,0-.741-2.1V475a4.369,4.369,0,0,1,3.08-1.949c1.559,0,2.027,1.481,2.26,2.611,1.637-1.364,3.781-2.611,5.77-2.611a4.928,4.928,0,0,1,4.795,2.885c1.52-1.4,3.9-2.885,6-2.885,4.482,0,5.691,3.664,5.691,6.744v5.263c0,2.027.039,4.171.116,5.535-.9.078-2.533.312-4.21.312-.546,0-.78-.234-.78-.741V480.3c0-2.066-.9-3.508-2.963-3.508a4.977,4.977,0,0,0-3.158,1.442V489.7c0,.7-.078.9-.9,1.014a28.766,28.766,0,0,1-4.093.2c.078-2.1.118-4.483.118-7.095V480.3c0-2.1-1.014-3.508-2.846-3.508a5.171,5.171,0,0,0-3.274,1.442Z" transform="translate(-104.757 -233.408)" fill="#a82020"/>
      <path id="Pfad_2663" data-name="Pfad 2663" d="M280.89,473.053a7.268,7.268,0,0,1,4.444,1.4c0,1.169-.546,2.846-2.027,2.534a6.706,6.706,0,0,0-2.533-.585c-1.131,0-1.91.546-1.91,1.4,0,.819.546,1.247,1.364,1.676.741.429,2.534,1.208,3.274,1.637a4.592,4.592,0,0,1,2.768,4.287c0,3.86-3.508,5.731-7.095,5.731a8.278,8.278,0,0,1-4.093-1.014,1.714,1.714,0,0,1-1.052-1.6,3.142,3.142,0,0,1,.9-2.222,9.438,9.438,0,0,0,4.561,1.481c1.325,0,2.183-.546,2.183-1.559,0-.624-.351-1.092-1.4-1.676-1.014-.546-1.988-.975-3.158-1.6a4.791,4.791,0,0,1-2.729-4.405c0-3.547,3.041-5.5,6.471-5.5Z" transform="translate(-135.207 -233.408)" fill="#a82020"/>
      <path id="Pfad_2664" data-name="Pfad 2664" d="M309.88,473.053a16.55,16.55,0,0,1,3.119.39,19.684,19.684,0,0,0,3.275.546,9.191,9.191,0,0,0,2.885-.429,3.547,3.547,0,0,1,.156,1.052,2.053,2.053,0,0,1-1.949,2.339,9.654,9.654,0,0,1-1.131.078,5.623,5.623,0,0,1,.429,2.105c0,4.015-3.119,5.886-6.9,5.886a5.812,5.812,0,0,1-1.364-.117c-.273.234-.7.585-.7.9,0,.429.273.9,1.716,1.053,1.442.117,3.118.234,4.638.312,3.664.273,5.029,2.339,5.029,4.6,0,4.6-4.6,7.212-9.512,7.212-4.639,0-7.835-2.222-7.835-5.107,0-1.754,2.105-2.963,3.587-3.665a3.814,3.814,0,0,1-2.417-3.352c0-.156.078-.312.429-.507a15.193,15.193,0,0,0,2.65-1.988,5.149,5.149,0,0,1-3.43-5.067c0-3.742,3.158-6.237,7.289-6.237ZM306.1,493.168c0,1.676,2.144,2.612,4.56,2.612,2.3,0,4.171-.9,4.171-2.534,0-.975-.507-1.793-2.533-2.066a21.6,21.6,0,0,0-3.47-.234,3.233,3.233,0,0,0-1.6.351,2.016,2.016,0,0,0-1.13,1.832Zm3.625-17.386c-1.638,0-2.612,1.52-2.612,3.275,0,2.105,1.208,3.274,2.767,3.274,1.6,0,2.612-1.4,2.612-3.235,0-1.676-.741-3.314-2.728-3.314Z" transform="translate(-148.878 -233.408)" fill="#a82020"/>
      <path id="Pfad_2665" data-name="Pfad 2665" d="M340.749,470.261a43.209,43.209,0,0,0-.155-4.366,28.28,28.28,0,0,1,4.288-.468c.585,0,.741.2.741,2.417v8.03c0,2.885,1.715,3.548,3.2,3.548a4.386,4.386,0,0,0,2.924-1.17V467.22c0-1.131.117-1.364.818-1.52a34.772,34.772,0,0,1,4.171-.273c0,.819-.117,3.626-.117,7.017v5.77c0,1.559.546,1.91,1.6,2.1v.234c-.078,1.208-1.364,2.729-2.417,2.729a3.211,3.211,0,0,1-3.47-2.534,10.073,10.073,0,0,1-3,1.988,6.332,6.332,0,0,1-2.495.546c-4.288,0-6.081-2.846-6.081-6.666ZM345,457.124a2.217,2.217,0,0,1,2.1,2.3,2.243,2.243,0,0,1-2.339,2.456,2.166,2.166,0,0,1-2.222-2.3,2.3,2.3,0,0,1,2.417-2.456Zm7.562,0a2.2,2.2,0,0,1,2.144,2.3,2.243,2.243,0,0,1-2.339,2.456,2.187,2.187,0,0,1-2.222-2.3,2.27,2.27,0,0,1,2.378-2.456Z" transform="translate(-168.052 -225.549)" fill="#a82020"/>
      <path id="Pfad_2666" data-name="Pfad 2666" d="M391.507,483.972a3.3,3.3,0,0,1-.741,2.885,6.8,6.8,0,0,1-4.327,1.209c-4.015,0-5.3-2.534-5.3-5.3v-9.122c-1.52,0-2.222-.7-2.222-1.169a29.9,29.9,0,0,1,4.444-4.444,4.879,4.879,0,0,1,3-1.208,29.3,29.3,0,0,0-.234,3.625h5.77c-.468,2.768-1.364,2.963-2.144,3.041-.858.078-2.183.156-3.743.156a82.243,82.243,0,0,0,.039,8.381c.2,1.871,1.247,2.573,2.573,2.573a5.95,5.95,0,0,0,2.728-.7Z" transform="translate(-186.96 -230.333)" fill="#a82020"/>
      <path id="Pfad_2667" data-name="Pfad 2667" d="M422.008,486.658a4.732,4.732,0,0,1-2.221,3.82,11.991,11.991,0,0,1-3.587.663c-5.73,0-8.888-3.08-8.888-8.849,0-4.678,3.08-9.239,8.381-9.239a6.575,6.575,0,0,1,7.017,6.822,5.358,5.358,0,0,1-.117,1.287c-.117.585-1.715,1.208-3.314,1.6a49.661,49.661,0,0,1-7.173.2c.234,3.2,2.651,4.522,5.263,4.522a12.089,12.089,0,0,0,4.561-.975Zm-6.7-10.681c-1.443,0-3,1.364-3.119,4.171a50.176,50.176,0,0,0,5.418,0c.273,0,.507-.351.507-.819.039-1.832-.857-3.352-2.768-3.352Z" transform="translate(-200.971 -233.408)" fill="#a82020"/>
      <path id="Pfad_2668" data-name="Pfad 2668" d="M449.261,473.053a7.267,7.267,0,0,1,4.444,1.4c0,1.169-.546,2.846-2.027,2.534a6.708,6.708,0,0,0-2.534-.585c-1.131,0-1.91.546-1.91,1.4,0,.819.546,1.247,1.364,1.676.741.429,2.534,1.208,3.275,1.637a4.592,4.592,0,0,1,2.768,4.287c0,3.86-3.508,5.731-7.094,5.731a8.279,8.279,0,0,1-4.094-1.014,1.714,1.714,0,0,1-1.052-1.6,3.142,3.142,0,0,1,.9-2.222,9.438,9.438,0,0,0,4.561,1.481c1.325,0,2.183-.546,2.183-1.559,0-.624-.351-1.092-1.4-1.676-1.014-.546-1.988-.975-3.158-1.6a4.791,4.791,0,0,1-2.729-4.405c0-3.547,3.041-5.5,6.471-5.5Z" transform="translate(-218.283 -233.408)" fill="#a82020"/>
      <path id="Pfad_2669" data-name="Pfad 2669" d="M475.988,456.662a2.386,2.386,0,0,1,2.456,2.573,2.574,2.574,0,0,1-2.573,2.689,2.415,2.415,0,0,1-2.534-2.572,2.608,2.608,0,0,1,2.612-2.69Zm2.378,24.988c0,.7-.273.9-1.17,1.014a32.037,32.037,0,0,1-3.82.156c.039-1.6.118-3.859.118-6.12v-6.666a42.322,42.322,0,0,0-.157-4.366,24.014,24.014,0,0,1,4.288-.468c.585,0,.741.2.741,2.417Z" transform="translate(-233.549 -225.321)" fill="#a82020"/>
      <path id="Pfad_2670" data-name="Pfad 2670" d="M505.5,486.658a4.731,4.731,0,0,1-2.222,3.82,11.984,11.984,0,0,1-3.586.663c-5.731,0-8.888-3.08-8.888-8.849,0-4.678,3.079-9.239,8.381-9.239a6.575,6.575,0,0,1,7.016,6.822,5.362,5.362,0,0,1-.116,1.287c-.118.585-1.715,1.208-3.314,1.6a49.654,49.654,0,0,1-7.172.2c.233,3.2,2.65,4.522,5.262,4.522a12.09,12.09,0,0,0,4.561-.975Zm-6.7-10.681c-1.443,0-3,1.364-3.119,4.171a50.177,50.177,0,0,0,5.419,0c.273,0,.507-.351.507-.819.039-1.832-.857-3.352-2.768-3.352Z" transform="translate(-242.168 -233.408)" fill="#a82020"/>
      <path id="Pfad_2671" data-name="Pfad 2671" d="M533.119,473.053a16.546,16.546,0,0,1,3.119.39,19.683,19.683,0,0,0,3.275.546,9.186,9.186,0,0,0,2.884-.429,3.543,3.543,0,0,1,.156,1.052,2.053,2.053,0,0,1-1.949,2.339,9.653,9.653,0,0,1-1.13.078,5.632,5.632,0,0,1,.429,2.105c0,4.015-3.119,5.886-6.9,5.886a5.812,5.812,0,0,1-1.364-.117c-.273.234-.7.585-.7.9,0,.429.273.9,1.716,1.053,1.442.117,3.118.234,4.638.312,3.665.273,5.029,2.339,5.029,4.6,0,4.6-4.6,7.212-9.512,7.212-4.639,0-7.835-2.222-7.835-5.107,0-1.754,2.1-2.963,3.586-3.665a3.814,3.814,0,0,1-2.418-3.352c0-.156.079-.312.429-.507a15.175,15.175,0,0,0,2.65-1.988,5.149,5.149,0,0,1-3.43-5.067c0-3.742,3.158-6.237,7.29-6.237Zm-3.781,20.115c0,1.676,2.144,2.612,4.561,2.612,2.3,0,4.171-.9,4.171-2.534,0-.975-.507-1.793-2.533-2.066a21.6,21.6,0,0,0-3.469-.234,3.234,3.234,0,0,0-1.6.351,2.016,2.016,0,0,0-1.13,1.832Zm3.625-17.386c-1.637,0-2.611,1.52-2.611,3.275,0,2.105,1.208,3.274,2.768,3.274,1.6,0,2.611-1.4,2.611-3.235,0-1.676-.741-3.314-2.729-3.314Z" transform="translate(-259.026 -233.408)" fill="#a82020"/>
      <path id="Pfad_2672" data-name="Pfad 2672" d="M576.6,486.658a4.732,4.732,0,0,1-2.222,3.82,11.986,11.986,0,0,1-3.587.663c-5.73,0-8.888-3.08-8.888-8.849,0-4.678,3.08-9.239,8.382-9.239a6.575,6.575,0,0,1,7.017,6.822,5.329,5.329,0,0,1-.117,1.287c-.117.585-1.715,1.208-3.314,1.6a49.652,49.652,0,0,1-7.172.2c.234,3.2,2.651,4.522,5.262,4.522a12.1,12.1,0,0,0,4.561-.975Zm-6.7-10.681c-1.443,0-3,1.364-3.119,4.171a50.186,50.186,0,0,0,5.419,0c.273,0,.507-.351.507-.819.039-1.832-.858-3.352-2.768-3.352Z" transform="translate(-277.25 -233.408)" fill="#a82020"/>
      <path id="Pfad_2673" data-name="Pfad 2673" d="M598.926,460.65a38.242,38.242,0,0,0-.156-4.093,17.342,17.342,0,0,1,4.287-.741c.585,0,.74.2.74,2.533v18.673c0,1.91.078,4.015.157,5.146a38.3,38.3,0,0,1-4.483.312c-.389,0-.546-.117-.546-.507Z" transform="translate(-295.438 -224.904)" fill="#a82020"/>
      <path id="Pfad_2674" data-name="Pfad 2674" d="M132.851,382.877c5.308,0,8.727,3.775,8.727,8.809,0,4.842-3.091,9.11-8.919,9.11-6.347,0-8.808-4.678-8.808-8.809,0-5.17,3.337-9.11,8.973-9.11Zm-.356,2.27c-2.571,0-4.842,2.052-4.842,6.511s2.463,6.866,5.28,6.866c3.037,0,4.925-2.407,4.925-6.62,0-3.529-1.779-6.757-5.334-6.757Zm-2.571-6.784a1.532,1.532,0,0,1,1.477,1.587,1.583,1.583,0,0,1-1.641,1.751,1.526,1.526,0,0,1-1.587-1.614,1.608,1.608,0,0,1,1.723-1.723Zm5.881,0a1.5,1.5,0,0,1,1.477,1.587,1.569,1.569,0,0,1-1.641,1.751,1.529,1.529,0,0,1-1.532-1.614,1.594,1.594,0,0,1,1.669-1.723Z" transform="translate(-61.109 -186.688)" fill="#1a1818"/>
      <path id="Pfad_2675" data-name="Pfad 2675" d="M167.757,397.426a5.1,5.1,0,0,1,3.119.985c0,.821-.382,2-1.422,1.778a4.71,4.71,0,0,0-1.778-.41c-.793,0-1.34.383-1.34.985,0,.574.382.875.957,1.176.52.3,1.779.848,2.3,1.149a3.223,3.223,0,0,1,1.942,3.009c0,2.708-2.462,4.021-4.979,4.021a5.808,5.808,0,0,1-2.872-.711,1.2,1.2,0,0,1-.739-1.122,2.2,2.2,0,0,1,.63-1.559,6.621,6.621,0,0,0,3.2,1.04c.93,0,1.531-.383,1.531-1.094,0-.438-.246-.766-.984-1.176-.711-.383-1.4-.684-2.216-1.122a3.361,3.361,0,0,1-1.915-3.091c0-2.489,2.134-3.857,4.541-3.857Z" transform="translate(-80.397 -196.093)" fill="#1a1818"/>
      <path id="Pfad_2676" data-name="Pfad 2676" d="M190.842,405.089a2.317,2.317,0,0,1-.52,2.024,4.774,4.774,0,0,1-3.037.848c-2.818,0-3.72-1.778-3.72-3.72v-6.4c-1.066,0-1.559-.492-1.559-.821a20.976,20.976,0,0,1,3.119-3.119,3.421,3.421,0,0,1,2.106-.848,20.512,20.512,0,0,0-.164,2.544h4.049c-.328,1.942-.957,2.079-1.5,2.134-.6.055-1.532.109-2.627.109a57.8,57.8,0,0,0,.027,5.882c.137,1.313.875,1.805,1.805,1.805a4.179,4.179,0,0,0,1.915-.492Z" transform="translate(-89.803 -193.935)" fill="#1a1818"/>
      <path id="Pfad_2677" data-name="Pfad 2677" d="M212.245,406.973a3.319,3.319,0,0,1-1.559,2.681,8.414,8.414,0,0,1-2.517.465c-4.021,0-6.237-2.161-6.237-6.21,0-3.283,2.161-6.483,5.881-6.483a4.614,4.614,0,0,1,4.925,4.787,3.764,3.764,0,0,1-.082.9c-.082.41-1.2.848-2.325,1.122a34.867,34.867,0,0,1-5.034.137c.164,2.243,1.86,3.173,3.693,3.173a8.49,8.49,0,0,0,3.2-.684Zm-4.705-7.5c-1.012,0-2.106.957-2.188,2.927a35.048,35.048,0,0,0,3.8,0c.191,0,.356-.246.356-.574.027-1.286-.6-2.353-1.942-2.353Z" transform="translate(-99.635 -196.093)" fill="#1a1818"/>
      <path id="Pfad_2678" data-name="Pfad 2678" d="M226.988,398.794a3.222,3.222,0,0,1,2.134-1.368c1.149,0,1.669,1.176,1.669,2.872.821-1.86,1.97-2.872,3.419-2.872a2.021,2.021,0,0,1,1.423.575,3.307,3.307,0,0,1-.465,2.134,1.1,1.1,0,0,1-1.04.766,3.372,3.372,0,0,0-1.176-.192c-.438,0-1.231.356-1.7,1.5a3.657,3.657,0,0,0-.219,1.313v5.553c0,.41-.055.629-.629.739a19.812,19.812,0,0,1-2.872.137c.055-1.477.082-3.146.082-4.979v-4.623a1.706,1.706,0,0,0-.629-1.422Z" transform="translate(-111.998 -196.093)" fill="#1a1818"/>
      <path id="Pfad_2679" data-name="Pfad 2679" d="M247.183,398.794a3.219,3.219,0,0,1,2.134-1.368c1.148,0,1.668,1.176,1.668,2.872.821-1.86,1.97-2.872,3.419-2.872a2.021,2.021,0,0,1,1.423.575,3.307,3.307,0,0,1-.465,2.134,1.1,1.1,0,0,1-1.04.766,3.37,3.37,0,0,0-1.176-.192c-.437,0-1.231.356-1.7,1.5a3.658,3.658,0,0,0-.218,1.313v5.553c0,.41-.055.629-.629.739a19.819,19.819,0,0,1-2.872.137c.054-1.477.082-3.146.082-4.979v-4.623a1.707,1.707,0,0,0-.629-1.422Z" transform="translate(-121.962 -196.093)" fill="#1a1818"/>
      <path id="Pfad_2680" data-name="Pfad 2680" d="M276.126,406.973a3.319,3.319,0,0,1-1.559,2.681,8.414,8.414,0,0,1-2.517.465c-4.021,0-6.237-2.161-6.237-6.21,0-3.283,2.161-6.483,5.881-6.483a4.614,4.614,0,0,1,4.925,4.787,3.731,3.731,0,0,1-.083.9c-.082.41-1.2.848-2.325,1.122a34.869,34.869,0,0,1-5.034.137c.164,2.243,1.86,3.173,3.693,3.173a8.489,8.489,0,0,0,3.2-.684Zm-4.705-7.5c-1.012,0-2.106.957-2.188,2.927a35.039,35.039,0,0,0,3.8,0c.191,0,.356-.246.356-.574.027-1.286-.6-2.353-1.942-2.353Z" transform="translate(-131.154 -196.093)" fill="#1a1818"/>
      <path id="Pfad_2681" data-name="Pfad 2681" d="M293.807,385.923a1.674,1.674,0,0,1,1.723,1.805,1.806,1.806,0,0,1-1.806,1.888,1.7,1.7,0,0,1-1.779-1.8,1.831,1.831,0,0,1,1.833-1.888Zm1.669,17.536c0,.492-.191.629-.821.711a22.5,22.5,0,0,1-2.681.109c.027-1.122.082-2.708.082-4.295v-4.678a29.563,29.563,0,0,0-.11-3.064,16.864,16.864,0,0,1,3.01-.328c.41,0,.52.137.52,1.7Z" transform="translate(-144.049 -190.418)" fill="#1a1818"/>
      <path id="Pfad_2682" data-name="Pfad 2682" d="M314.654,407.137a3.49,3.49,0,0,1-.93,2.243,6.018,6.018,0,0,1-3.146.739c-3.611,0-6.319-2.106-6.319-6.046a6.5,6.5,0,0,1,6.784-6.648,5.772,5.772,0,0,1,3.748,1.067c-.027.93-.492,1.97-1.587,1.778a6.7,6.7,0,0,0-2.079-.383c-1.942,0-3.392,1.4-3.392,3.72a3.654,3.654,0,0,0,3.857,3.939,8.54,8.54,0,0,0,2.982-.492Z" transform="translate(-150.124 -196.093)" fill="#1a1818"/>
      <path id="Pfad_2683" data-name="Pfad 2683" d="M332.735,393.017a5.964,5.964,0,0,1,3.775-1.559c2.6,0,4.049,1.888,4.049,4.9v3.638c0,1.34.028,2.845.082,3.775a22.664,22.664,0,0,1-2.954.219c-.383,0-.547-.164-.547-.574V396.6c0-1.614-.848-2.517-2.106-2.517a3.886,3.886,0,0,0-2.3.875v8.1c0,.52-.082.684-.629.793a24.641,24.641,0,0,1-2.873.137c.055-1.477.082-3.119.082-4.951V388.776a28,28,0,0,0-.109-2.927,14.123,14.123,0,0,1,3.009-.52c.41,0,.52.137.52,1.805Z" transform="translate(-162.433 -190.125)" fill="#1a1818"/>
      <path id="Pfad_2684" data-name="Pfad 2684" d="M360.495,385.923a1.674,1.674,0,0,1,1.723,1.805,1.806,1.806,0,0,1-1.8,1.888,1.7,1.7,0,0,1-1.779-1.8,1.831,1.831,0,0,1,1.833-1.888Zm1.669,17.536c0,.492-.192.629-.821.711a22.5,22.5,0,0,1-2.681.109c.027-1.122.083-2.708.083-4.295v-4.678a29.712,29.712,0,0,0-.11-3.064,16.859,16.859,0,0,1,3.009-.328c.411,0,.52.137.52,1.7Z" transform="translate(-176.953 -190.418)" fill="#1a1818"/>
      <path id="Pfad_2685" data-name="Pfad 2685" d="M375.219,397.426a5.1,5.1,0,0,1,3.119.985c0,.821-.383,2-1.422,1.778a4.71,4.71,0,0,0-1.778-.41c-.793,0-1.34.383-1.34.985,0,.574.383.875.957,1.176.52.3,1.779.848,2.3,1.149a3.223,3.223,0,0,1,1.942,3.009c0,2.708-2.462,4.021-4.979,4.021a5.807,5.807,0,0,1-2.872-.711,1.2,1.2,0,0,1-.739-1.122,2.2,2.2,0,0,1,.629-1.559,6.624,6.624,0,0,0,3.2,1.04c.93,0,1.531-.383,1.531-1.094,0-.438-.246-.766-.984-1.176-.711-.383-1.4-.684-2.216-1.122a3.361,3.361,0,0,1-1.915-3.091c0-2.489,2.133-3.857,4.541-3.857Z" transform="translate(-182.76 -196.093)" fill="#1a1818"/>
      <path id="Pfad_2686" data-name="Pfad 2686" d="M401.376,407.137a3.5,3.5,0,0,1-.93,2.243,6.019,6.019,0,0,1-3.146.739c-3.611,0-6.319-2.106-6.319-6.046a6.5,6.5,0,0,1,6.784-6.648,5.772,5.772,0,0,1,3.748,1.067c-.027.93-.492,1.97-1.587,1.778a6.709,6.709,0,0,0-2.08-.383c-1.942,0-3.392,1.4-3.392,3.72a3.655,3.655,0,0,0,3.857,3.939,8.542,8.542,0,0,0,2.982-.492Z" transform="translate(-192.913 -196.093)" fill="#1a1818"/>
      <path id="Pfad_2687" data-name="Pfad 2687" d="M419.457,393.017a5.963,5.963,0,0,1,3.775-1.559c2.6,0,4.049,1.888,4.049,4.9v3.638c0,1.34.028,2.845.082,3.775a22.664,22.664,0,0,1-2.954.219c-.383,0-.547-.164-.547-.574V396.6c0-1.614-.848-2.517-2.106-2.517a3.886,3.886,0,0,0-2.3.875v8.1c0,.52-.082.684-.629.793a24.637,24.637,0,0,1-2.873.137c.055-1.477.083-3.119.083-4.951V388.776a28.046,28.046,0,0,0-.109-2.927,14.12,14.12,0,0,1,3.009-.52c.41,0,.52.137.52,1.805Z" transform="translate(-205.223 -190.125)" fill="#1a1818"/>
      <path id="Pfad_2688" data-name="Pfad 2688" d="M453.888,406.973a3.32,3.32,0,0,1-1.559,2.681,8.415,8.415,0,0,1-2.517.465c-4.021,0-6.238-2.161-6.238-6.21,0-3.283,2.162-6.483,5.882-6.483a4.614,4.614,0,0,1,4.924,4.787,3.739,3.739,0,0,1-.082.9c-.082.41-1.2.848-2.325,1.122a34.86,34.86,0,0,1-5.034.137c.164,2.243,1.86,3.173,3.693,3.173a8.484,8.484,0,0,0,3.2-.684Zm-4.705-7.5c-1.013,0-2.107.957-2.188,2.927a35.047,35.047,0,0,0,3.8,0c.191,0,.356-.246.356-.574.027-1.286-.6-2.353-1.942-2.353Z" transform="translate(-218.863 -196.093)" fill="#1a1818"/>
      <path id="Pfad_2689" data-name="Pfad 2689" d="M473.01,397.426a5.1,5.1,0,0,1,3.119.985c0,.821-.383,2-1.422,1.778a4.71,4.71,0,0,0-1.778-.41c-.793,0-1.34.383-1.34.985,0,.574.382.875.957,1.176.52.3,1.779.848,2.3,1.149a3.223,3.223,0,0,1,1.942,3.009c0,2.708-2.462,4.021-4.979,4.021a5.807,5.807,0,0,1-2.872-.711,1.2,1.2,0,0,1-.739-1.122,2.205,2.205,0,0,1,.629-1.559,6.625,6.625,0,0,0,3.2,1.04c.93,0,1.531-.383,1.531-1.094,0-.438-.246-.766-.984-1.176-.711-.383-1.4-.684-2.216-1.122a3.361,3.361,0,0,1-1.915-3.091c0-2.489,2.134-3.857,4.541-3.857Z" transform="translate(-231.011 -196.093)" fill="#1a1818"/>
    </g>
  </g>
</svg>
