<svg xmlns="http://www.w3.org/2000/svg" xmlns:xlink="http://www.w3.org/1999/xlink" width="200.32" height="200.32" viewBox="0 0 200.32 200.32">
  <defs>
    <clipPath id="clip-path">
      <rect id="Rechteck_421" data-name="Rechteck 421" width="200.32" height="200.32" fill="none"/>
    </clipPath>
  </defs>
  <g id="sieghelBG2" transform="translate(6733 -17201.977)">
    <g id="Ellipse_26" data-name="Ellipse 26" transform="translate(-6693.288 17241.705)" fill="#fff" stroke="#707070" stroke-width="1">
      <circle cx="60.614" cy="60.614" r="60.614" stroke="none"/>
      <circle cx="60.614" cy="60.614" r="60.114" fill="none"/>
    </g>
    <g id="Gruppe_87" data-name="Gruppe 87" transform="translate(-6733 17201.977)">
      <path id="Pfad_2612" data-name="Pfad 2612" d="M453.717,422.627l-31.225,31.256H407l46.717-46.626Z" transform="translate(-262.293 -262.458)" fill="#a21819"/>
      <path id="Pfad_2613" data-name="Pfad 2613" d="M510.1,494.229v15.7H494.484" transform="translate(-318.673 -318.508)" fill="#a21819"/>
      <g id="Gruppe_86" data-name="Gruppe 86">
        <g id="Gruppe_85" data-name="Gruppe 85" clip-path="url(#clip-path)">
          <path id="Pfad_2614" data-name="Pfad 2614" d="M170.828,114.025a58.722,58.722,0,1,1-58.72,58.722,58.722,58.722,0,0,1,58.72-58.722m0-2.451a60.988,60.988,0,1,0,23.812,4.808,60.792,60.792,0,0,0-23.812-4.808" transform="translate(-70.67 -71.904)" fill="#a21819"/>
          <path id="Pfad_2615" data-name="Pfad 2615" d="M235.814,181.607a56.273,56.273,0,1,1-56.273-56.282,56.273,56.273,0,0,1,56.273,56.282M216.5,210.789a.325.325,0,0,0,.325-.326V208.7a.324.324,0,0,0-.325-.325H142.58a.325.325,0,0,0-.326.325v1.767a.326.326,0,0,0,.326.326Zm-5.059-45.371a.327.327,0,0,0,.326-.326v-1.766a.327.327,0,0,0-.326-.326H147.529a.327.327,0,0,0-.326.326v1.766a.326.326,0,0,0,.326.326Zm2.542,40.422a.326.326,0,0,0,.326-.327v-1.767a.326.326,0,0,0-.326-.326H145.033a.326.326,0,0,0-.325.326v1.767a.327.327,0,0,0,.325.327Zm-2.5-4.931a.326.326,0,0,0,.326-.326v-1.76a.325.325,0,0,0-.326-.326H147.554a.326.326,0,0,0-.327.326v1.76a.327.327,0,0,0,.327.326Zm-64.673-43.193a.325.325,0,0,0,.415.2l32.1-11.3a.461.461,0,0,1,.307,0l31.907,11.3a.327.327,0,0,0,.417-.2l.589-1.665a.326.326,0,0,0-.2-.416l-32.558-11.528a.922.922,0,0,0-.614,0l-32.754,11.529a.325.325,0,0,0-.2.416Zm55.854,3.026a.325.325,0,0,0,.417-.195l.6-1.661a.325.325,0,0,0-.194-.417L179.8,149.881a.922.922,0,0,0-.614-.006L155.3,157.968a.327.327,0,0,0-.2.414l.567,1.674a.327.327,0,0,0,.413.2l23.238-7.875a.468.468,0,0,1,.308,0Zm-43.451,35.265a.327.327,0,0,0,.326-.326v-27.4a.327.327,0,0,0-.326-.326h-9.152a.327.327,0,0,0-.326.326v27.4a.327.327,0,0,0,.326.326Zm-6.733-2.417a.327.327,0,0,1-.326-.326V170.7a.327.327,0,0,1,.326-.326H156.8a.327.327,0,0,1,.326.326v22.561a.327.327,0,0,1-.326.326Zm19.176,2.417a.327.327,0,0,0,.325-.326v-27.4a.327.327,0,0,0-.325-.326h-9.151a.327.327,0,0,0-.326.326v27.4a.327.327,0,0,0,.326.326Zm-6.733-2.417a.327.327,0,0,1-.326-.326V170.7a.327.327,0,0,1,.326-.326h4.314a.327.327,0,0,1,.326.326v22.561a.327.327,0,0,1-.326.326Zm19.174,2.417a.327.327,0,0,0,.326-.326v-27.4a.327.327,0,0,0-.326-.326h-9.149a.327.327,0,0,0-.326.326v27.4a.327.327,0,0,0,.326.326Zm-6.73-2.417a.327.327,0,0,1-.326-.326V170.7a.326.326,0,0,1,.326-.326h4.312a.327.327,0,0,1,.326.326v22.561a.327.327,0,0,1-.326.326Zm19.174,2.417a.327.327,0,0,0,.326-.326v-27.4a.327.327,0,0,0-.326-.326h-9.151a.328.328,0,0,0-.326.326v27.4a.327.327,0,0,0,.326.326Zm-6.731-2.417a.327.327,0,0,1-.327-.326V170.7a.327.327,0,0,1,.327-.326h4.313a.327.327,0,0,1,.326.326v22.561a.327.327,0,0,1-.326.326Zm19.175,2.417a.327.327,0,0,0,.326-.326v-27.4a.327.327,0,0,0-.326-.326h-9.151a.327.327,0,0,0-.326.326v27.4a.327.327,0,0,0,.326.326Zm-6.732-2.417a.328.328,0,0,1-.328-.326V170.7a.328.328,0,0,1,.328-.326h4.314a.326.326,0,0,1,.325.326v22.561a.326.326,0,0,1-.325.326Z" transform="translate(-79.441 -80.766)" fill="#a21819"/>
          <path id="Pfad_2616" data-name="Pfad 2616" d="M40.547,119.073a.332.332,0,0,1,.47.017.343.343,0,0,1,.017.52.331.331,0,0,1-.491,0,.349.349,0,0,1,0-.529Zm1.141.244a1.817,1.817,0,0,1,2.688.012,1.861,1.861,0,0,1,.029,2.764,1.806,1.806,0,0,1-2.7,0,1.856,1.856,0,0,1-.021-2.772Zm-.239-1.145a.325.325,0,0,1,.47.017.34.34,0,0,1,.017.52.331.331,0,0,1-.482-.013.346.346,0,0,1-.009-.52Zm.533,1.548c-.394.394-.428,1.057.256,1.74s1.43.675,1.862.243c.466-.465.386-1.124-.26-1.77a1.276,1.276,0,0,0-1.854-.218Z" transform="translate(-26.049 -76.096)" fill="#262525"/>
          <path id="Pfad_2617" data-name="Pfad 2617" d="M52.206,116.554a1.105,1.105,0,0,1,.629-.327c.126.126.248.365.055.491a1.031,1.031,0,0,0-.336.21c-.121.122-.146.264-.054.356s.193.076.327.034.4-.143.529-.176a.7.7,0,0,1,.759.163.952.952,0,0,1-.146,1.38,1.26,1.26,0,0,1-.55.331.262.262,0,0,1-.286-.059.481.481,0,0,1-.143-.336,1.432,1.432,0,0,0,.65-.331c.143-.143.176-.294.067-.4-.067-.067-.156-.08-.331-.029s-.319.108-.512.168a.729.729,0,0,1-.767-.181.882.882,0,0,1,.1-1.287Z" transform="translate(-33.423 -74.903)" fill="#262525"/>
          <path id="Pfad_2618" data-name="Pfad 2618" d="M58.44,112.545a.5.5,0,0,1,.231.39,1.035,1.035,0,0,1-.336.6.728.728,0,0,1-1.141,0l-.981-.981c-.164.164-.315.164-.365.113a4.539,4.539,0,0,1,0-.956.741.741,0,0,1,.193-.453,4.513,4.513,0,0,0,.364.415l.621-.621c.247.348.172.465.1.558s-.218.252-.386.419a12.531,12.531,0,0,0,.906.9.375.375,0,0,0,.554,0,.912.912,0,0,0,.218-.369Z" transform="translate(-35.975 -71.565)" fill="#262525"/>
          <path id="Pfad_2619" data-name="Pfad 2619" d="M63.836,107.789a.718.718,0,0,1,.171.65,1.8,1.8,0,0,1-.314.458,1.214,1.214,0,0,1-1.909,0,1.318,1.318,0,0,1-.092-1.9,1,1,0,0,1,1.489-.021.8.8,0,0,1,.126.151c.05.075-.055.314-.185.528a7.66,7.66,0,0,1-.751.793.727.727,0,0,0,1.052-.08,1.842,1.842,0,0,0,.386-.6Zm-1.871-.428c-.155.155-.176.47.113.784a7.4,7.4,0,0,0,.583-.583c.029-.029.017-.092-.033-.143a.436.436,0,0,0-.658-.063Z" transform="translate(-39.525 -68.738)" fill="#262525"/>
          <path id="Pfad_2620" data-name="Pfad 2620" d="M66.358,102.148a.7.7,0,0,1,.117-.537c.176-.176.436-.076.7.185a.853.853,0,0,1,.084-.964.438.438,0,0,1,.306-.13.715.715,0,0,1,.256.4.238.238,0,0,1-.042.277.719.719,0,0,0-.209.151.45.45,0,0,0-.03.49.8.8,0,0,0,.167.235l.852.851c.063.063.088.1.017.21a4.329,4.329,0,0,1-.42.461c-.218-.234-.47-.495-.751-.776l-.709-.708a.37.37,0,0,0-.314-.121Z" transform="translate(-42.755 -64.897)" fill="#262525"/>
          <path id="Pfad_2621" data-name="Pfad 2621" d="M70.982,97.523a.7.7,0,0,1,.117-.537c.176-.176.436-.075.7.185a.853.853,0,0,1,.084-.965.44.44,0,0,1,.306-.13.718.718,0,0,1,.256.4.237.237,0,0,1-.042.277.734.734,0,0,0-.209.151.45.45,0,0,0-.03.491.8.8,0,0,0,.167.235l.852.851c.063.063.088.1.017.21a4.369,4.369,0,0,1-.42.461c-.218-.234-.47-.495-.751-.776l-.709-.709A.37.37,0,0,0,71,97.544Z" transform="translate(-45.735 -61.916)" fill="#262525"/>
          <path id="Pfad_2622" data-name="Pfad 2622" d="M78.747,92.878a.72.72,0,0,1,.172.65,1.814,1.814,0,0,1-.314.458,1.213,1.213,0,0,1-1.908,0,1.318,1.318,0,0,1-.092-1.9,1,1,0,0,1,1.489-.021.816.816,0,0,1,.126.151c.05.075-.055.315-.185.528a7.66,7.66,0,0,1-.751.793.727.727,0,0,0,1.052-.08,1.836,1.836,0,0,0,.386-.6Zm-1.871-.428c-.155.155-.176.47.113.784a7.46,7.46,0,0,0,.583-.583c.029-.029.017-.092-.033-.143a.435.435,0,0,0-.658-.063Z" transform="translate(-49.135 -59.129)" fill="#262525"/>
          <path id="Pfad_2623" data-name="Pfad 2623" d="M78.728,85.8a.363.363,0,0,1,.541.012.391.391,0,0,1,.012.566.367.367,0,0,1-.549,0,.4.4,0,0,1-.009-.57Zm2.944,2.432c.075.075.067.126-.017.235a4.868,4.868,0,0,1-.394.428c-.168-.176-.4-.428-.646-.671L79.9,87.5a6.343,6.343,0,0,0-.487-.453,3.618,3.618,0,0,1,.411-.512c.063-.063.1-.059.34.18Z" transform="translate(-50.658 -55.217)" fill="#262525"/>
          <path id="Pfad_2624" data-name="Pfad 2624" d="M87.687,83.693a.753.753,0,0,1,.2.486,1.3,1.3,0,0,1-.369.6,1.252,1.252,0,0,1-1.9.042,1.41,1.41,0,0,1,.021-2.059,1.25,1.25,0,0,1,.738-.411c.138.147.226.377.03.516a1.439,1.439,0,0,0-.378.26.731.731,0,0,0,.05,1.09.793.793,0,0,0,1.2.012,1.843,1.843,0,0,0,.382-.533Z" transform="translate(-54.899 -53.069)" fill="#262525"/>
          <path id="Pfad_2625" data-name="Pfad 2625" d="M88.457,77.84a1.291,1.291,0,0,1,.34-.817c.4-.4.91-.332,1.372.129l.558.557c.206.206.441.432.591.567a5,5,0,0,1-.42.486c-.059.059-.109.059-.172,0l-1.044-1.044a.467.467,0,0,0-.709-.063.843.843,0,0,0-.218.486L90,79.379c.08.08.092.118.025.219a5.42,5.42,0,0,1-.42.461c-.218-.235-.465-.49-.746-.772l-1.572-1.572a6.175,6.175,0,0,0-.465-.432,3.045,3.045,0,0,1,.381-.541c.063-.063.1-.058.357.2Z" transform="translate(-55.95 -49.434)" fill="#262525"/>
          <path id="Pfad_2626" data-name="Pfad 2626" d="M93.934,70.59a.363.363,0,0,1,.541.012.391.391,0,0,1,.012.566.367.367,0,0,1-.549,0,.4.4,0,0,1-.009-.57Zm2.944,2.432c.075.075.067.126-.017.235a4.93,4.93,0,0,1-.394.428c-.168-.176-.4-.428-.646-.671L95.1,72.3a6.347,6.347,0,0,0-.487-.453,3.618,3.618,0,0,1,.411-.512c.063-.063.1-.059.34.18Z" transform="translate(-60.458 -45.418)" fill="#262525"/>
          <path id="Pfad_2627" data-name="Pfad 2627" d="M100.419,68.341a1.105,1.105,0,0,1,.629-.327c.126.126.248.365.055.491a1.031,1.031,0,0,0-.336.21c-.121.121-.146.264-.054.356s.193.076.327.034.4-.143.529-.176a.7.7,0,0,1,.759.163.952.952,0,0,1-.146,1.38,1.26,1.26,0,0,1-.55.331.263.263,0,0,1-.285-.059.481.481,0,0,1-.143-.336,1.432,1.432,0,0,0,.65-.331c.143-.143.176-.294.067-.4-.067-.067-.156-.08-.331-.029s-.319.108-.512.168a.73.73,0,0,1-.767-.181.882.882,0,0,1,.1-1.287Z" transform="translate(-64.494 -43.832)" fill="#262525"/>
          <path id="Pfad_2628" data-name="Pfad 2628" d="M107.659,63.721a.756.756,0,0,1,.2.486,1.3,1.3,0,0,1-.369.6,1.252,1.252,0,0,1-1.9.042,1.41,1.41,0,0,1,.021-2.059,1.248,1.248,0,0,1,.738-.411c.139.146.227.377.03.516a1.44,1.44,0,0,0-.378.26.731.731,0,0,0,.05,1.09.793.793,0,0,0,1.2.013,1.849,1.849,0,0,0,.382-.533Z" transform="translate(-67.77 -40.198)" fill="#262525"/>
          <path id="Pfad_2629" data-name="Pfad 2629" d="M108.428,57.868a1.292,1.292,0,0,1,.34-.818c.4-.4.91-.331,1.371.13l.558.557c.206.206.441.432.591.566a4.952,4.952,0,0,1-.42.486c-.059.059-.109.059-.172,0l-1.044-1.044a.468.468,0,0,0-.709-.063.838.838,0,0,0-.218.486l1.241,1.242c.08.08.092.117.025.218a5.419,5.419,0,0,1-.42.461c-.218-.235-.465-.49-.747-.772l-1.572-1.572a6.015,6.015,0,0,0-.465-.432,3.032,3.032,0,0,1,.381-.541c.063-.063.1-.059.357.2Z" transform="translate(-68.821 -36.564)" fill="#262525"/>
          <path id="Pfad_2630" data-name="Pfad 2630" d="M119.505,52.12a.719.719,0,0,1,.172.65,1.811,1.811,0,0,1-.314.458,1.213,1.213,0,0,1-1.908,0,1.318,1.318,0,0,1-.092-1.9,1,1,0,0,1,1.489-.021.81.81,0,0,1,.126.151c.05.075-.054.315-.185.528a7.621,7.621,0,0,1-.751.793.727.727,0,0,0,1.052-.08,1.842,1.842,0,0,0,.386-.6Zm-1.871-.428c-.155.155-.176.47.113.784a7.524,7.524,0,0,0,.583-.583c.03-.03.017-.092-.033-.143a.435.435,0,0,0-.658-.063Z" transform="translate(-75.401 -32.862)" fill="#262525"/>
          <path id="Pfad_2631" data-name="Pfad 2631" d="M122.738,46.021a1.105,1.105,0,0,1,.629-.327c.126.126.248.365.055.491a1.031,1.031,0,0,0-.336.21c-.121.122-.146.264-.054.356s.193.076.327.034.4-.143.529-.176a.7.7,0,0,1,.759.164.952.952,0,0,1-.147,1.38,1.259,1.259,0,0,1-.549.331.262.262,0,0,1-.286-.059.48.48,0,0,1-.143-.336,1.432,1.432,0,0,0,.65-.331c.143-.143.176-.294.067-.4-.067-.067-.156-.08-.331-.029s-.319.109-.512.168a.729.729,0,0,1-.767-.181.882.882,0,0,1,.1-1.287Z" transform="translate(-78.877 -29.448)" fill="#262525"/>
          <path id="Pfad_2632" data-name="Pfad 2632" d="M29.983,162.309a4.233,4.233,0,0,1,.624-.8c.064-.065.142-.065.328.07l2.7,2.02c.772.579,1.319.984,1.685,1.235a6.3,6.3,0,0,1-.6.721.225.225,0,0,1-.341.019c-.373-.283-.759-.6-1.512-1.216l-1.762-1.4c.373.733,1.068,2.136,1.866,3.757a.369.369,0,0,1-.026.45,3.756,3.756,0,0,1-.373.463c-.65-.341-2.869-1.467-4.04-2.071.695.849,1.962,2.49,2.631,3.339a.158.158,0,0,1-.013.232,2.7,2.7,0,0,1-.663.546c-.579-.8-1.968-2.715-3.191-4.426l-.148-.1a5.085,5.085,0,0,1,.636-.817c.116-.078.251-.045.682.154l3.2,1.505c-.482-1.113-1.2-2.663-1.583-3.59Z" transform="translate(-17.494 -104.055)" fill="#a21819"/>
          <path id="Pfad_2633" data-name="Pfad 2633" d="M44.913,157.04a9.94,9.94,0,0,0-.746-.694,6.578,6.578,0,0,1,.631-.785c.1-.1.154-.09.521.276l1.325,1.325a.706.706,0,0,0,1.113.058,1.023,1.023,0,0,0,.29-.676l-1.82-1.82c-.187-.187-.206-.245-.116-.386a8.115,8.115,0,0,1,.644-.733c.135.135.578.618,1.138,1.178l.952.952c.257.257.405.225.611.083l.038.039a.741.741,0,0,1,.052.849.749.749,0,0,1-.991.154,2.34,2.34,0,0,1-.167.824,1.483,1.483,0,0,1-.321.5,1.354,1.354,0,0,1-2.1-.1Z" transform="translate(-28.464 -98.991)" fill="#a21819"/>
          <path id="Pfad_2634" data-name="Pfad 2634" d="M55.782,147.18a1.694,1.694,0,0,1,.965-.5c.193.193.38.56.084.753a1.561,1.561,0,0,0-.514.321c-.186.187-.225.405-.084.547s.3.116.5.052.617-.219.81-.271a1.071,1.071,0,0,1,1.164.251,1.46,1.46,0,0,1-.225,2.116,1.932,1.932,0,0,1-.843.508.4.4,0,0,1-.437-.09.732.732,0,0,1-.219-.514,2.211,2.211,0,0,0,1-.508c.218-.219.27-.45.1-.618-.1-.1-.238-.122-.508-.045s-.489.167-.785.257a1.118,1.118,0,0,1-1.177-.277,1.354,1.354,0,0,1,.161-1.975Z" transform="translate(-35.609 -94.527)" fill="#a21819"/>
          <path id="Pfad_2635" data-name="Pfad 2635" d="M66.78,140.578a1.106,1.106,0,0,1,.264,1,2.794,2.794,0,0,1-.482.7,1.861,1.861,0,0,1-2.927.007,2.022,2.022,0,0,1-.141-2.908,1.534,1.534,0,0,1,2.283-.032,1.247,1.247,0,0,1,.193.231c.077.116-.084.483-.283.811a11.616,11.616,0,0,1-1.151,1.216,1.115,1.115,0,0,0,1.614-.122,2.808,2.808,0,0,0,.592-.913Zm-2.869-.656c-.238.238-.27.72.174,1.2a11.639,11.639,0,0,0,.894-.894c.045-.045.026-.141-.051-.219a.668.668,0,0,0-1.01-.1Z" transform="translate(-40.56 -89.481)" fill="#a21819"/>
          <path id="Pfad_2636" data-name="Pfad 2636" d="M70.4,131.554a9.987,9.987,0,0,0-.746-.695,6.577,6.577,0,0,1,.631-.784c.1-.1.154-.09.521.276l1.325,1.325a.706.706,0,0,0,1.113.058,1.024,1.024,0,0,0,.289-.676l-1.82-1.82c-.186-.187-.206-.245-.116-.386a8.158,8.158,0,0,1,.644-.733c.135.135.579.618,1.138,1.177l.952.952c.257.257.4.225.611.084l.038.039a.74.74,0,0,1,.052.849.749.749,0,0,1-.991.154,2.346,2.346,0,0,1-.167.823,1.481,1.481,0,0,1-.321.5,1.354,1.354,0,0,1-2.1-.1Z" transform="translate(-44.888 -82.567)" fill="#a21819"/>
          <path id="Pfad_2637" data-name="Pfad 2637" d="M83.131,120.416c.116.116.135.174.032.328a8.244,8.244,0,0,1-.643.708c-.335-.36-.721-.759-1.145-1.184L80.3,119.194a.556.556,0,0,0-.469-.225l-.039-.038a1.023,1.023,0,0,1,.187-.83c.258-.257.579-.09.8.058a2.31,2.31,0,0,1,.521-1.383,1.15,1.15,0,0,1,1.267-.315,2.337,2.337,0,0,1,.515-1.466,1.354,1.354,0,0,1,2.052.174l.868.868c.335.335.695.682.933.894-.135.161-.367.47-.643.746a.154.154,0,0,1-.251.006l-1.627-1.627c-.341-.341-.727-.431-1.068-.09a1.163,1.163,0,0,0-.283.759l1.891,1.891c.116.116.135.161.019.315a6.786,6.786,0,0,1-.643.708c-.334-.36-.72-.759-1.151-1.19l-.579-.579c-.348-.348-.746-.412-1.049-.11a1.207,1.207,0,0,0-.3.778Z" transform="translate(-51.407 -73.847)" fill="#a21819"/>
          <path id="Pfad_2638" data-name="Pfad 2638" d="M95.7,107.259a1.694,1.694,0,0,1,.965-.5c.193.193.38.56.084.753a1.557,1.557,0,0,0-.514.321c-.187.187-.225.405-.084.547s.3.116.5.052.618-.219.81-.27a1.073,1.073,0,0,1,1.164.251,1.46,1.46,0,0,1-.225,2.117,1.931,1.931,0,0,1-.843.508.4.4,0,0,1-.437-.09.732.732,0,0,1-.219-.514,2.211,2.211,0,0,0,1-.508c.219-.219.27-.45.1-.618-.1-.1-.238-.122-.508-.045s-.489.167-.785.257a1.118,1.118,0,0,1-1.177-.277,1.354,1.354,0,0,1,.161-1.975Z" transform="translate(-61.336 -68.8)" fill="#a21819"/>
          <path id="Pfad_2639" data-name="Pfad 2639" d="M102.978,98.164a3.869,3.869,0,0,1,.579-.45,4.654,4.654,0,0,0,.63-.45,2.146,2.146,0,0,0,.405-.547.825.825,0,0,1,.2.148.479.479,0,0,1,.064.708,2.323,2.323,0,0,1-.174.2,1.308,1.308,0,0,1,.418.277,1.4,1.4,0,0,1-.167,2.11,1.382,1.382,0,0,1-.244.206c-.006.084-.02.212.032.264.071.07.193.1.457-.11s.553-.476.817-.714a1.076,1.076,0,0,1,1.589-.071c.759.759.431,1.949-.379,2.76-.765.765-1.659.926-2.135.45-.289-.289-.142-.836-.013-1.2a.89.89,0,0,1-.952-.154c-.026-.026-.039-.064-.013-.155a3.553,3.553,0,0,0,.109-.765,1.2,1.2,0,0,1-1.4-.27,1.534,1.534,0,0,1,.174-2.232Zm.425.476a.678.678,0,0,0,.11.971.641.641,0,1,0-.1-.978Zm2.271,3.467c.277.277.785.077,1.184-.321.379-.38.54-.837.27-1.107-.161-.16-.38-.212-.759.077a5.073,5.073,0,0,0-.611.534.755.755,0,0,0-.206.321.47.47,0,0,0,.116.489Z" transform="translate(-65.987 -62.33)" fill="#a21819"/>
          <path id="Pfad_2640" data-name="Pfad 2640" d="M107.667,86.817a.518.518,0,0,1,.727.032.524.524,0,0,1,.019.791.506.506,0,0,1-.746-.013.537.537,0,0,1-.006-.8Zm1.467,2.869a10.162,10.162,0,0,0-.746-.695,6.6,6.6,0,0,1,.63-.785c.1-.1.155-.09.521.276l1.325,1.325a.706.706,0,0,0,1.113.058,1.023,1.023,0,0,0,.289-.676l-1.82-1.82c-.187-.186-.206-.245-.116-.386a8.123,8.123,0,0,1,.643-.733c.135.135.579.618,1.139,1.177l.952.952c.257.257.4.225.611.084l.039.038a.741.741,0,0,1,.051.849.749.749,0,0,1-.991.154,2.347,2.347,0,0,1-.167.823,1.476,1.476,0,0,1-.322.5,1.355,1.355,0,0,1-2.1-.1Zm-.219-4.117a.513.513,0,0,1,.733.026.524.524,0,0,1,.019.791.511.511,0,0,1-.746-.013.529.529,0,0,1-.013-.8Z" transform="translate(-69.267 -55.054)" fill="#a21819"/>
          <path id="Pfad_2641" data-name="Pfad 2641" d="M123.715,82.662a.771.771,0,0,1,.354.6,1.592,1.592,0,0,1-.515.914,1.118,1.118,0,0,1-1.75,0L120.3,82.669c-.251.251-.482.251-.56.174a6.936,6.936,0,0,1,0-1.466,1.135,1.135,0,0,1,.3-.695,6.8,6.8,0,0,0,.56.636l.952-.952c.379.534.264.714.148.855s-.334.386-.592.644a19.187,19.187,0,0,0,1.389,1.376.575.575,0,0,0,.849,0,1.4,1.4,0,0,0,.335-.566Z" transform="translate(-77.14 -51.792)" fill="#a21819"/>
          <path id="Pfad_2642" data-name="Pfad 2642" d="M131.627,75.73a1.1,1.1,0,0,1,.264,1,2.8,2.8,0,0,1-.482.7,1.861,1.861,0,0,1-2.927.007,2.022,2.022,0,0,1-.142-2.908,1.535,1.535,0,0,1,2.284-.032,1.255,1.255,0,0,1,.193.231c.077.116-.084.482-.283.811a11.574,11.574,0,0,1-1.151,1.216A1.115,1.115,0,0,0,131,76.631a2.815,2.815,0,0,0,.592-.913Zm-2.869-.656c-.238.238-.27.72.174,1.2a11.635,11.635,0,0,0,.894-.894c.045-.045.026-.141-.051-.219a.668.668,0,0,0-1.01-.1Z" transform="translate(-82.351 -47.69)" fill="#a21819"/>
          <path id="Pfad_2643" data-name="Pfad 2643" d="M136.041,66.922a1.694,1.694,0,0,1,.965-.5c.193.193.38.56.084.753a1.553,1.553,0,0,0-.514.322c-.187.186-.225.4-.084.546s.3.116.5.052.618-.219.81-.27a1.073,1.073,0,0,1,1.164.251,1.46,1.46,0,0,1-.225,2.117,1.931,1.931,0,0,1-.843.508.4.4,0,0,1-.437-.09.732.732,0,0,1-.219-.514,2.211,2.211,0,0,0,1-.508c.219-.219.27-.45.1-.618-.1-.1-.238-.122-.508-.045s-.489.167-.785.257a1.118,1.118,0,0,1-1.177-.277,1.353,1.353,0,0,1,.161-1.975Z" transform="translate(-87.332 -42.805)" fill="#a21819"/>
          <path id="Pfad_2644" data-name="Pfad 2644" d="M138.087,58.376a.557.557,0,0,1,.83.02.6.6,0,0,1,.019.869.563.563,0,0,1-.843-.007.609.609,0,0,1-.013-.875Zm4.516,3.731c.116.116.1.193-.026.361a7.552,7.552,0,0,1-.6.656c-.257-.27-.618-.656-.991-1.029l-1.1-1.1a9.841,9.841,0,0,0-.746-.695,5.586,5.586,0,0,1,.63-.785c.1-.1.154-.09.521.277Z" transform="translate(-88.87 -37.507)" fill="#a21819"/>
          <path id="Pfad_2645" data-name="Pfad 2645" d="M151.271,56.086a1.1,1.1,0,0,1,.264,1,2.794,2.794,0,0,1-.482.7,1.861,1.861,0,0,1-2.927.007,2.022,2.022,0,0,1-.142-2.908,1.534,1.534,0,0,1,2.283-.032,1.249,1.249,0,0,1,.193.231c.077.116-.084.482-.283.811a11.611,11.611,0,0,1-1.151,1.216,1.115,1.115,0,0,0,1.615-.122,2.811,2.811,0,0,0,.592-.913ZM148.4,55.43c-.238.238-.27.72.174,1.2a11.635,11.635,0,0,0,.894-.894c.045-.045.026-.141-.051-.219a.668.668,0,0,0-1.01-.1Z" transform="translate(-95.011 -35.031)" fill="#a21819"/>
          <path id="Pfad_2646" data-name="Pfad 2646" d="M155.85,45.291a3.871,3.871,0,0,1,.579-.45,4.626,4.626,0,0,0,.631-.45,2.14,2.14,0,0,0,.4-.547.829.829,0,0,1,.2.148.479.479,0,0,1,.064.708,2.2,2.2,0,0,1-.173.2,1.328,1.328,0,0,1,.418.277,1.4,1.4,0,0,1-.167,2.11,1.384,1.384,0,0,1-.244.206c-.006.084-.019.212.032.264.071.07.193.1.457-.109s.553-.476.817-.714a1.075,1.075,0,0,1,1.589-.071c.759.759.431,1.949-.379,2.76-.765.765-1.659.926-2.135.45-.289-.289-.142-.836-.013-1.2a.89.89,0,0,1-.952-.154c-.026-.026-.039-.064-.013-.155a3.556,3.556,0,0,0,.109-.765,1.2,1.2,0,0,1-1.4-.27,1.534,1.534,0,0,1,.174-2.232Zm.424.476a.677.677,0,0,0,.109.971.641.641,0,1,0-.1-.977Zm2.271,3.467c.277.277.785.077,1.184-.321.38-.38.54-.837.27-1.107-.161-.16-.38-.212-.759.077a5.043,5.043,0,0,0-.611.534.752.752,0,0,0-.206.321.47.47,0,0,0,.116.489Z" transform="translate(-100.06 -28.255)" fill="#a21819"/>
          <path id="Pfad_2647" data-name="Pfad 2647" d="M168.039,39.319a1.106,1.106,0,0,1,.264,1,2.794,2.794,0,0,1-.482.7,1.861,1.861,0,0,1-2.927.007,2.022,2.022,0,0,1-.141-2.908,1.534,1.534,0,0,1,2.283-.032,1.236,1.236,0,0,1,.193.231c.077.116-.084.482-.283.811a11.612,11.612,0,0,1-1.151,1.216,1.115,1.115,0,0,0,1.614-.122,2.814,2.814,0,0,0,.592-.913Zm-2.869-.656c-.238.238-.27.72.174,1.2a11.636,11.636,0,0,0,.894-.894c.045-.045.026-.141-.051-.218a.667.667,0,0,0-1.01-.1Z" transform="translate(-105.817 -24.225)" fill="#a21819"/>
          <path id="Pfad_2648" data-name="Pfad 2648" d="M167.669,29.494a8.83,8.83,0,0,0-.7-.65,4.018,4.018,0,0,1,.586-.829c.1-.1.154-.09.54.3l3.081,3.081c.316.315.676.65.875.823a8.934,8.934,0,0,1-.688.791c-.064.064-.11.071-.174.006Z" transform="translate(-107.603 -18.02)" fill="#a21819"/>
          <path id="Pfad_2649" data-name="Pfad 2649" d="M26.2,43.009,42.956,26.2H58.47L26.2,58.37Z" transform="translate(-16.885 -16.885)" fill="#a21819"/>
        </g>
      </g>
    </g>
  </g>
</svg>
