<svg xmlns="http://www.w3.org/2000/svg" width="108.891" height="108.368" viewBox="0 0 108.891 108.368">
  <path id="_360-rotate-vr-movement-svgrepo-com" data-name="360-rotate-vr-movement-svgrepo-com" d="M61.757,17.24A67.711,67.711,0,0,1,74.4,11.1c10.839-3.974,19.872-3.974,24.208.723,3.613,3.613,4.336,10.478,2.168,19.511-.361,1.807.723,3.974,2.529,4.336s3.974-.723,4.336-2.529c3.252-11.562,1.807-20.6-3.974-26.376C97.166.258,85.6-.464,71.512,4.594A142.465,142.465,0,0,0,54.892,12.9a71.46,71.46,0,0,0-16.621-8.31C24.18-.826,12.979-.1,6.114,6.762-2.919,16.156.333,34.944,12.979,55.178A71.46,71.46,0,0,0,4.669,71.8c-5.42,14.091-4.7,25.292,2.168,32.157,3.613,3.613,9.033,5.42,15.175,5.42a46.327,46.327,0,0,0,16.982-3.613C52,100.7,66.454,91.31,79.1,78.3c.723-.723,1.084-1.445,1.807-1.807v7.588a3.613,3.613,0,0,0,7.226,0V66.018A3.414,3.414,0,0,0,84.52,62.4H66.454a3.613,3.613,0,0,0,0,7.226h11.2c-1.084,1.445-2.529,2.529-3.613,3.974C62.118,85.529,48.749,94.562,36.465,99.259c-11.2,3.974-20.234,3.974-24.569-.723C7.559,94.2,7.2,85.167,11.534,73.967a80.633,80.633,0,0,1,6.142-12.646A156.25,156.25,0,0,0,30.322,76.5h-11.2a3.613,3.613,0,0,0,0,7.226H37.187A3.414,3.414,0,0,0,40.8,80.109V62.043a3.414,3.414,0,0,0-3.613-3.613,3.414,3.414,0,0,0-3.613,3.613v7.588A107.139,107.139,0,0,1,21.651,54.817,140.281,140.281,0,0,1,37.187,36.39c5.781-5.781,11.923-11.2,18.427-15.175A170.327,170.327,0,0,1,74.041,36.39C85.965,48.313,95,61.682,99.695,73.967c4.336,11.2,3.974,19.872-.361,24.569-4.7,4.7-14.453,4.7-26.376-.361a3.559,3.559,0,1,0-2.891,6.5c7.226,2.891,13.73,4.336,19.15,4.336,6.142,0,11.562-1.807,15.175-5.42,13.007-13.007,2.168-44.8-25.292-71.9A204.066,204.066,0,0,0,61.757,17.24ZM31.767,31.693A156.591,156.591,0,0,0,17.315,48.674C7.559,32.054,5.753,17.6,11.9,11.82c4.336-4.336,13.369-4.7,24.569-.361A80.633,80.633,0,0,1,49.111,17.6,105.8,105.8,0,0,0,31.767,31.693Z" transform="translate(-0.979 -1.007)" fill="#fff"/>
</svg>
